STARTFONT 2.1
COMMENT
COMMENT Converted from OpenType font "Font 90 Icons.ttf" by "otf2bdf 3.0".
COMMENT
FONT -FreeType-Font 90 Icons-Medium-R-Normal--50-360-100-100-P-184-ISO10646-1
SIZE 36 100 100
FONTBOUNDINGBOX 53 52 0 -10
STARTPROPERTIES 19
FOUNDRY "FreeType"
FAMILY_NAME "Font 90 Icons"
WEIGHT_NAME "Medium"
SLANT "R"
SETWIDTH_NAME "Normal"
ADD_STYLE_NAME ""
PIXEL_SIZE 50
POINT_SIZE 360
RESOLUTION_X 100
RESOLUTION_Y 100
SPACING "P"
AVERAGE_WIDTH 184
CHARSET_REGISTRY "ISO10646"
CHARSET_ENCODING "1"
FONT_ASCENT 41
FONT_DESCENT 10
COPYRIGHT "Typeface © (el-harrak.blogspot.com). <darrati10@gmail.com>. All Rights Reserved"
_OTF_FONTFILE "Font 90 Icons.ttf"
_OTF_PSNAME "Font 90 Icons"
ENDPROPERTIES
CHARS 242
STARTCHAR 0000
ENCODING 0
SWIDTH 0 0
DWIDTH 0 0
BBX 0 0 0 0
BITMAP
ENDCHAR
STARTCHAR 001D
ENCODING 29
SWIDTH 0 0
DWIDTH 0 0
BBX 0 0 0 0
BITMAP
ENDCHAR
STARTCHAR 0020
ENCODING 32
SWIDTH 240 0
DWIDTH 12 0
BBX 0 0 0 0
BITMAP
ENDCHAR
STARTCHAR 0021
ENCODING 33
SWIDTH 980 0
DWIDTH 49 0
BBX 48 48 0 -8
BITMAP
00001FFC0000
0000FFFF8000
0007FFF3E000
000FFFFE7800
003FFFFF1E00
007FFFFF8700
00FFFFFFC380
01FFFFFFC0C0
03FFFFFFE060
07FFFFFFE030
0FFFFC1FE030
0FFFF81FF018
1FFFF80FF00C
1FFFF80FF00C
3FFFFC1FF006
3FFFFE3FE006
7FFFFFFFE002
7FFFFFFFE003
7FFFFFFFC003
7FFFFFFF8003
7FFFFFFF8001
FFFFFFFF0001
FFFFFFFC0001
FFFFFFF00001
FFFFF8000001
FFFFE0000001
FFFF80000001
7FFF00000001
7FFE00000003
7FFE00000003
7FFC00000003
7FFC00000002
3FF801C00006
3FF803E00006
1FF807F0000C
1FF807F0000C
0FF807E00018
0FF803E00030
07FC00000030
03FC00000060
01FC000000C0
00FE00000180
007F00000700
003F80000E00
000FC0003800
0007F001E000
0001FFFF8000
00001FFC0000
ENDCHAR
STARTCHAR 0022
ENCODING 34
SWIDTH 980 0
DWIDTH 49 0
BBX 49 38 0 -3
BITMAP
00007FFF000000
00007FFF000000
00006003000000
00006003000000
00006003800000
00006003800000
0FFFFFFFFFF800
3FFFFFFFFFFE00
7FFFFFFFFFFF00
7FFFFFFFFFFF00
FFFFFFFFFFFF00
FFFFFFFFFFFF80
FFFFFFFFFFFF80
FFFFFFFFFFFF80
FFFFFFFFFFFF80
FFFFFFFFFFFF80
FFFFFFFFFFFF80
FFFFFFFFFFFF80
FFFFFFFFFFFF80
FFFFFFFFFFFF80
FFFFFFFFFFFF80
FFFFFFFFFFFF80
FFFFFFFFFFFF80
FFFFFFFFFFFF80
FFFFFFFFFFFF80
FFFFFFFFFFFF80
FFFFFFFFFFFF80
FFFFFFFFFFFF80
FFFFFFFFFFFF80
FFFFFFFFFFFF80
FFFFFFFFFFFF80
FFFFFFFFFFFF80
FFFFFFFFFFFF80
FFFFFFFFFFFF80
FFFFFFFFFFFF00
7FFFFFFFFFFF00
7FFFFFFFFFFF00
3FFFFFFFFFFE00
ENDCHAR
STARTCHAR 0023
ENCODING 35
SWIDTH 980 0
DWIDTH 49 0
BBX 45 51 2 -10
BITMAP
0007FE000000
003FFFC00000
F87FFFF00000
F9FFFFFE0000
F9FFFFFFE1C0
F9FFFFFFFFC0
FDFFFFFFFFC0
7DFFFFFFFFC0
7DFFFFFFFFC0
7CFFFFFFFFC0
7CFFFFFFFFC0
7EFFFFFFFFE0
3EFFFFFFFFE0
3EFFFFFFFFE0
3E7FFFFFFFE0
3E7FFFFFFFE0
3E7FFFFFFFE0
3F7FFFFFFFF0
1F7FFFFFFFF0
1F3FFFFFFFF0
1F3FFFFFFFF0
1F3FFFFFFFF0
1F3FFFFFFFF0
1FBFE01FFFF0
0F9F0003FFF8
0F9C00007FF8
0F9800001FF8
0F90000007F8
0FC0000000F0
07C000000000
07C000000000
07C000000000
07C000000000
07C000000000
07E000000000
03E000000000
03E000000000
03E000000000
03E000000000
03F000000000
03F000000000
01F000000000
01F000000000
01F000000000
01F000000000
01F800000000
00F800000000
00F800000000
00F800000000
00F800000000
002000000000
ENDCHAR
STARTCHAR 0024
ENCODING 36
SWIDTH 980 0
DWIDTH 49 0
BBX 48 48 0 -8
BITMAP
01E000000000
07F800000000
0FFC00000000
1FFC00000000
3FFE00000000
7FFF00000000
7FFF80000000
FFFFC0000000
FFFFE0000000
FFFFF8000000
7FFFFC000000
7FFFFE000000
3FFFFF800000
1FFFFDC00000
0FFFFBE00000
07FFF7F00000
03FFEFF80000
01FFDFFC0000
00FFBFF80000
007F7FF00000
003EFFE00000
001DFFC00000
001BFF800000
000FFF400000
0007FFC00000
0003FCE00000
0003F8700000
0001F0380000
0000E01C0000
0000400E0000
000000070000
000000038000
00000001C000
000000006000
000000003000
000000001800
000000000C00
000000000400
000000000200
000000000100
000000000080
000000000040
000000000020
000000000010
000000000008
000000000004
000000000002
000000000001
ENDCHAR
STARTCHAR 0025
ENCODING 37
SWIDTH 980 0
DWIDTH 49 0
BBX 45 51 2 -10
BITMAP
00000F800000
00001FC00000
00003FC00000
00003FE00000
00003FE00000
0001FFF80000
0007FFFF0000
001FFFFFC000
003FFFFFE000
007FFFFFF000
38FFFFFFF9E0
7FFF9F8FFFF0
FFFE0F83FFF8
FFFC0F81FFF8
FFF00F00FFF8
FFF00F007FF8
FFF80700FFF0
7FFC0701FFE0
3FFE0703FFC0
3FFF0707FFE0
3FFF870FFFE0
3F3FFFFFC7E0
3F03FFFC07E0
3F007FF007E0
3F003FE007E0
3F003FE007E0
3F007FF007E0
3F01FFF807E0
3F0FFFFF87E0
3FFFC71FFFE0
3FFF070FFFE0
1FFE0703FFC0
3FFC0701FFF0
FFF80701FFF8
FFF00F80FFF8
FFF00F807FF8
FFF80F80FFF8
FFFE0F83FFF8
7FFF9FCFFFF0
3DFFFFFFFDE0
00FFFFFFF800
003FFFFFE000
001FFFFFC000
0007FFFF0000
0001FFFC0000
00003FE00000
00003FE00000
00003FC00000
00001FC00000
00000F800000
000007000000
ENDCHAR
STARTCHAR 0026
ENCODING 38
SWIDTH 980 0
DWIDTH 49 0
BBX 48 48 0 -8
BITMAP
00001FF80000
0000FFFF8000
0003FFFFE000
000FE003F800
003F00007C00
007C00001F00
00F803E00F80
01E03FFE03C0
03C0FFFF81E0
0783FFFFE0F0
0707FFFFF070
0E0FFFFFF878
1E1FFFFFFC38
1C3FFFFFFE1C
387FFFFFFE1C
387CFFFFFF0E
38FE7FFFFF0E
70FF3FFE7F87
70FF9FFC7F87
71FFCFF8FFC7
61FFE7F1FFC7
E1FFF3E3FFC7
E1FFF9C7FFC3
E1FFFC0FFFC3
E1FFFE1FFFC3
E1FFFE1FFFC3
E1FFFE3FFFC7
61FFFFFFFFC7
71FFFFFFFFC7
70FFFFFFFF87
70FFFFFFFF87
38FFFFFFFF0E
387FFFFFFF0E
387FFFFFFE1E
1C3FFFFFFE1C
1E1FFFFFFC3C
0E0FFFFFF838
0F07FFFFF070
0783FFFFE0F0
03C0FFFF81E0
01E03FFE03C0
00F007E00F80
007C00001F00
003F00007E00
000FE003F800
0003FFFFE000
0000FFFF8000
00001FFC0000
ENDCHAR
STARTCHAR 0027
ENCODING 39
SWIDTH 980 0
DWIDTH 49 0
BBX 48 49 0 -9
BITMAP
0003FF000000
000FFFE00000
003FFFF80000
00FFFFFC0000
01FFFFFF0000
03FFFFFF8000
07FFFFFFC000
0FFF03FFC000
1FFC007FE000
1FF0003FF000
3FE0781FF000
3FC0780FF800
7F807807F800
7F807807F800
7F007803FC00
7F007803FC00
7F1FFFE1FC00
FF1FFFF1FC00
FF3FFFF1FC00
FF1FFFF1FC00
7F1FFFE1FC00
7F007803FC00
7F007803FC00
7F807803F800
7F807807F800
3FC0780FF800
3FE0780FF000
1FF0001FF000
1FF8007FF000
0FFE01FFF800
07FFFFFFFC00
03FFFFFFFE00
01FFFFFFFF00
00FFFFFFFF80
007FFFFFFFC0
001FFFFFFFE0
0007FF8FFFF0
00000007FFF8
00000003FFFC
00000001FFFE
00000000FFFF
000000007FFF
000000003FFF
000000001FFF
000000000FFF
0000000007FF
0000000003FE
0000000001FC
000000000020
ENDCHAR
STARTCHAR 0028
ENCODING 40
SWIDTH 980 0
DWIDTH 49 0
BBX 48 48 0 -9
BITMAP
0007FF800000
001FFFF00000
007FFFF80000
00FFFFFE0000
01FFFFFF0000
03FFFFFF8000
07FFFFFFC000
0FFE01FFE000
1FF8007FE000
1FF0001FF000
3FE0000FF000
3FC0000FF800
7F800007F800
7F800003F800
7F000003FC00
7F000003FC00
FF1FFFE1FC00
FF3FFFF1FC00
FF3FFFF1FC00
FF3FFFF1FC00
FF0FFFC1FC00
7F000003FC00
7F000003FC00
7F800003F800
7F800007F800
3FC0000FF800
3FE0001FF000
1FF0003FF000
1FFC007FF800
0FFF01FFFC00
07FFFFFFFE00
03FFFFFFFF00
01FFFFFFFF80
00FFFFFFFFC0
007FFFFFFFE0
001FFFFFFFF0
0003FF0FFFF8
00000007FFFC
00000003FFFE
00000001FFFF
00000000FFFF
000000007FFF
000000003FFF
000000001FFF
000000000FFF
0000000007FF
0000000003FE
0000000001FC
ENDCHAR
STARTCHAR 0029
ENCODING 41
SWIDTH 980 0
DWIDTH 49 0
BBX 47 36 1 -2
BITMAP
7FFFFFFFFFFC
FFFFFFFFFFFE
FFFFFFFFFFFE
F8000000003E
FC000000007E
FE00000000FE
DF00000001F6
CF80000003E6
C7C0000007C6
C3E000000F86
C1F000001F06
C0F800003E06
C07C00007C06
C03E0000F806
C01F0001F006
C00F8003E006
C007C007C006
C003E00F8006
C001F01F0006
C003F83F8006
C007FC7FC006
C00F3FF9E006
C01E1FF0F006
C03C0FE07806
C07800003C06
C0F000001E06
C1E000000F06
C3C000000786
C780000003C6
CF00000001E6
DE00000000F6
FC000000007E
F8000000003E
FFFFFFFFFFFE
FFFFFFFFFFFE
FFFFFFFFFFFE
ENDCHAR
STARTCHAR 002A
ENCODING 42
SWIDTH 980 0
DWIDTH 49 0
BBX 43 51 3 -10
BITMAP
00003F000000
00003F000000
00003F000000
00003F000000
00003F000000
00003F000000
00003F000000
00003F000000
00003F000000
00003F000000
00003F000000
00003F000000
00603F018000
00F83F07C000
00FE3F1FC000
00FFFF7FC000
007FFFFF8000
003FFFFF0000
001FFFFE0000
000FFFFC0000
3FF7FFFBFF00
3FFBFFF7FF80
1FFDFFEFFF00
EFFEFFDFFEC0
F7FF7FBFFDE0
FBFFBF7FFBE0
FDFFDEFFF7E0
FEFFEDFFEFE0
FF7FFFFFDFE0
FFBFFFFFBFE0
FFDFFFFF7FE0
FFEFFFFEFFE0
FFF7FFFDFFE0
FFFBFFFBFFE0
FFFDFFF7FFE0
FFFCFFE7FFE0
FFFC7FC7FFE0
FFFB3FBBFFE0
FFF79E7DFFE0
FFEFE0FEFFE0
FFDFFFFF7FE0
FFBFFFFFBFE0
FF7FFFFFDFE0
FEFFFFFFEFE0
FDFFFFFFF7E0
FBFFFFFFFBE0
F7FFFFFFFDE0
EFFFFFFFFEE0
5FFFFFFFFF40
3FFFFFFFFF80
1FFFFFFFFF00
ENDCHAR
STARTCHAR 002B
ENCODING 43
SWIDTH 980 0
DWIDTH 49 0
BBX 48 48 0 -8
BITMAP
FFFFFFFFFFFF
FFFFFFFFFFFF
FFFFFFFFFFFF
FFFFFFFFFFFF
FFFFFFFFFFFF
FFFFFFFFFFFF
FC7FFFFFFF1F
FC00FFFF801F
FC01FFFFC01F
FC03FFFFE01F
FC03FFFFC01F
FC01FFFF801F
FC00FFFF001F
FC007FFE001F
FC403FFE011F
FCE07FFF039F
FDF0FFFF87DF
FFF9FFFFCFFF
FFFFFFFFFFFF
FFFFFFFFFFFF
FFFFFFFFFFFF
FFFFFFFFFFFF
FFFFFFFFFFFF
FFFFFFFFFFFF
FFFFFFFFFFFF
FFFFFFFFFFFF
FFFFFFFFFFFF
FFFFFFFFFFFF
FFFFFFFFFFFF
FFFFFFFFFFFF
FFF9FFFFCFFF
FDF0FFFF87DF
FCE07FFF039F
FC403FFE011F
FC003FFE001F
FC007FFF001F
FC00FFFF801F
FC01FFFFC01F
FC03FFFFE01F
FC01FFFFC01F
FC00FFFF801F
FC1FFFFFFC1F
FFFFFFFFFFFF
FFFFFFFFFFFF
FFFFFFFFFFFF
FFFFFFFFFFFF
FFFFFFFFFFFF
FFFFFFFFFFFF
ENDCHAR
STARTCHAR 002C
ENCODING 44
SWIDTH 980 0
DWIDTH 49 0
BBX 48 48 0 -8
BITMAP
000000000380
00000000FFC0
0000001FFFE0
0000003FFFF0
0000007FFFF8
000000FFFFFC
000001FFFFFE
000003FFFDFF
000007FFF8FF
00000FFFF07F
00001FFFF07F
00003FFFF8FF
00007FFFFDFF
0000FFFFFFFF
0001FFFFFFFE
0003FFFFFFFE
0007FFFFFFFE
000FFFFFFFFE
001FFFFFFFFE
003FFFFFFFFE
007FFFFFFFFC
00FCFFFFFFFC
01FC7FFFFFF8
03FE3FFFFFF0
07EF1FFFFFE0
0FC78FFFFFC0
1FC3C7FFFF80
3FE1E3FFFF00
7FF0F1FFFE00
FFF878FFFC00
3FFC3C7FF800
1FFE1E3FF000
0FFF0F1FE000
07FF878FC000
03FFC3DF8000
01FFE1FF0000
00FFF0FE0000
007FF8FC0000
003FFDF80000
001FFFF00000
000FFFE00000
0007FFC00000
0003FF800000
0001FF000000
0000FE000000
00007C000000
000038000000
000010000000
ENDCHAR
STARTCHAR 002D
ENCODING 45
SWIDTH 980 0
DWIDTH 49 0
BBX 48 48 0 -8
BITMAP
00000FF80000
0000FFFF8000
0003FFFFE000
000FF00FF800
003F8000FC00
007E00003F00
00F800000F80
01F0000007C0
03C0000003E0
07E0000081F0
07700001C0F0
0F380003C078
1E1C0007C03C
1C0E000FC03C
3C07001FC01C
3803803FC00E
3801E07FC00E
700000FFC00F
7001FFFFC007
7001FFFFC007
7001FFFFC007
F001FFFFC007
E001FFFFC007
E001FFFFC007
E001FFFFC007
E001FFFFC007
F001FFFFC007
7001FFFFC007
7001FFFFC007
7001FFFFC007
700000FFC00F
3800007FC00E
3800003FC00E
3C00001FD01E
1C00000FD01C
1E000007D83C
0F000003DC78
0F000001CEF0
0780000087F0
03C0000003E0
01E0000007C0
00F800000F80
007C00003F00
003F8000FE00
000FF007F800
0007FFFFE000
0000FFFF8000
00001FFC0000
ENDCHAR
STARTCHAR 002E
ENCODING 46
SWIDTH 980 0
DWIDTH 49 0
BBX 41 51 4 -10
BITMAP
1FFFFFFFFE00
1FFFFFFFFE00
180000000600
180000000600
180000000600
180000000600
180000000600
180000000600
180000000600
180000000600
180000000600
180000000600
180000000600
180000000600
180000000600
180000000600
180000000600
180000000600
180000000600
180000000600
180000000600
180000000600
180000000600
180000000600
1FFFFFFFFE00
1FFFFFFFFE00
000000000000
000000000000
1FFFFFFFFE00
1FFFFFFFFE00
1FFFFFFFFE00
1FFFFFC03E00
1FFFFFC03E00
1FFFFFC03E00
1FFFFFFFFE00
1FFFFFFFFE00
1FFFFFFFFE00
1FFFFFFFFE00
00000C000000
00000C000000
00000C000000
00000C000000
00000C000000
00000C000000
0003FFF00000
0007FFF80000
0007FFF80000
FFFFFFFFFF80
FFFFFFFFFF80
0007FFF80000
0007FFF80000
ENDCHAR
STARTCHAR 002F
ENCODING 47
SWIDTH 980 0
DWIDTH 49 0
BBX 48 50 0 -9
BITMAP
000001C00000
07000FF80060
07001FFC00F0
03803FFE00E0
03807FFF01E0
03C0FFFF81C0
01C0FFFF81C0
61E0FFFF83C3
71E1FFFF8387
70E1FFFF8387
70F1FFFF878F
78F1FFFF878F
78F1FFFF878E
38F1FFFF870E
38F1FFFF8F1E
3C79FFFF8F1E
3C79FFFF8F1E
3C79FFFF8F1E
3C79FFFF8F1E
3C79FFFF8F1E
3C79FFFF8F1E
3C79FFFF8F1E
3C79FFFF8F1E
3C79FFFF8F1E
3C79FFFF8F1E
3C79FFFF8F1E
3871FFFF8F1E
38F1FFFF8F0E
38F1FFFF878E
78F1FFFF878E
70F1FFFF878F
70E0FFFF8787
71E0FFFF8387
E1E0FFFF03C3
61C07FFF03C3
03C03FFE01C0
03801FFC01E0
03800FF800E0
07000FF800F0
07000FF80070
00000FF80000
00000FF80000
00000FF80000
00000FF80000
00000FF80000
00000FF80000
00000FF80000
00000FF80000
00000FF00000
000007E00000
ENDCHAR
STARTCHAR 0030
ENCODING 48
SWIDTH 980 0
DWIDTH 49 0
BBX 48 48 0 -8
BITMAP
00000FF80000
0000FFFF8000
0003FFFFE000
000FFFFFF800
003FFFFFFC00
007FFFFFFF00
00FFFFFFFF80
01FFFFFFFFC0
03FDFFFFBFE0
07F8FFFF8FE0
07F07FFF07F0
0FE07FFF03F8
1FC03FFE01F8
1F803FFC01FC
3F801FFC00FE
3F001FF8007E
3F000FF8007E
7E0007F0003F
7E0007F0003F
7E000FF8003F
7C001FFC003F
7C003C1C001F
FC00381E001F
FC00380E001F
FFFFF80FFFFF
FFFFF80FFFFF
FFFFFC1FFFFF
7FFFFE3FFFFF
7FFFFFFFFFFF
7FFFFFFFFFFF
7FFFF8CFFFFF
7FFFF007FFFE
3FFFE007FFFE
3FFFE003FFFE
1FFFC003FFFC
1FFFC001FFFC
0FFF8001FFF8
0FFF8000FFF0
07FF00007FF0
03FE00007FE0
01FF00007FC0
00FFC003FF80
007FFF7FFF00
003FFFFFFE00
000FFFFFF800
0007FFFFF000
0001FFFFC000
00003FFE0000
ENDCHAR
STARTCHAR 0031
ENCODING 49
SWIDTH 980 0
DWIDTH 49 0
BBX 47 51 1 -10
BITMAP
00001FF00000
00003FF80000
00003FF80000
00003FF80000
00003FF80000
00013FF90000
00063FF8C000
001E3FF8F000
007E3FF8F800
00FE3FF8FE00
01FE3FF8FF00
03FE3FF8FF80
07FE3FF8FF80
0FFE3FF8FFC0
0FF83FF83FE0
1FF03FF81FF0
1FE03FF80FF0
3FC03FF80FF8
3FC03FF807F8
7F803FF803F8
7F003FF803FC
7F003FF801FC
FF003FF801FC
FE003FF801FC
FE003FF800FE
FE003FF800FE
FE003FF800FE
FE001FF000FE
FE00000000FE
FE00000000FE
FE00000001FE
FE00000001FC
FF00000001FC
7F00000001FC
7F80000003FC
7F80000003F8
3FC0000007F8
3FC000000FF0
1FE000001FF0
1FF000003FE0
0FF800007FE0
07FE0000FFC0
07FF8003FF80
03FFF03FFF00
01FFFFFFFE00
007FFFFFFC00
003FFFFFF800
001FFFFFE000
0007FFFFC000
0000FFFE0000
00000FE00000
ENDCHAR
STARTCHAR 0032
ENCODING 50
SWIDTH 980 0
DWIDTH 49 0
BBX 45 52 2 -10
BITMAP
000002000000
00001F800000
00001FC00000
00003FC00000
00003FE00000
00003FC00000
00003FC00000
00003FC00000
00003FC00000
00001FC00000
00001FC00000
38001F8001E0
7E001F8007F0
FF800F800FF8
FFC00F801FF8
FFE00F003FF8
FFF00F007FF8
FFF80700FFF0
7FFC0701FFE0
3FFE0603FFC0
0FFF0607FF00
01FF870FF800
003FFFFF8000
0003FFFC0000
00007FF00000
00003FE00000
00003FE00000
00007FF00000
0001FFF80000
000FFFFF8000
00FFC71FF800
03FF070FFF00
1FFE0707FFC0
3FFC0703FFF0
FFF80701FFF8
FFF00F80FFF8
FFE00F807FF8
FFC00F801FF8
FF801F800FF8
FE001F8007F0
3C001FC001E0
00001FC00000
00001FC00000
00003FC00000
00003FC00000
00003FC00000
00003FE00000
00003FC00000
00003FC00000
00001FC00000
00001F800000
000007000000
ENDCHAR
STARTCHAR 0033
ENCODING 51
SWIDTH 980 0
DWIDTH 49 0
BBX 48 46 0 -7
BITMAP
000000800000
000000800000
000001800000
000001C00000
000003C00000
000003E00000
000007E00000
000007F00000
00000FF00000
00000FF80000
00001FF80000
00001FFC0000
00003FFC0000
00003FFE0000
00007FFE0000
0001FFFF8000
007FFFFFFF00
BFFFFFFFFFFE
7FFFFFFFFFFF
3FFFFFFFFFFC
1FFFFFFFFFF8
0FFFFFFFFFF0
07FFFFFFFFE0
03FFFFFFFFC0
01FFFFFFFF80
00FFFFFFFF00
007FFFFFFE00
003FFFFFFC00
001FFFFFF800
000FFFFFF000
000FFFFFF800
000FFFFFF800
000FFFFFF800
000FFFFFF800
000FFFFFF800
001FFFFFF800
001FFFFFFC00
001FFFFFFC00
001FFF7FFC00
001FFC1FFC00
001FF007FC00
003FC001FC00
003F00007E00
003C00001E00
003000000600
004000000200
ENDCHAR
STARTCHAR 0034
ENCODING 52
SWIDTH 980 0
DWIDTH 49 0
BBX 48 35 0 -2
BITMAP
1FFFFFFFFFFC
1FFFFFFFFFFC
0FFFFFFFFFF8
E7FFFFFFFFF3
F3FFFFFFFFE7
F9FFFFFFFFCF
FCFFFFFFFF9F
FE7FFFFFFF3F
FF3FFFFFFE7F
FF9FFFFFFCFF
FFCFFFFFF9FF
FFE7FFFFF3FF
FFF3FFFFE7FF
FFF9FFFFCFFF
FFFCFFFF9FFF
FFFE7FFF3FFF
FFFF3FFE7FFF
FFFF1FFCFFFF
FFFF0FF87FFF
FFFEE7F3BFFF
FFFDF3E7DFFF
FFFBF88FEFFF
FFF7FE3FF7FF
FFEFFFFFFBFF
FFDFFFFFFDFF
FFBFFFFFFEFF
FF7FFFFFFF7F
FEFFFFFFFFBF
FDFFFFFFFFDF
FBFFFFFFFFEF
F7FFFFFFFFF7
6FFFFFFFFFFB
1FFFFFFFFFFC
1FFFFFFFFFFC
1FFFFFFFFFF8
ENDCHAR
STARTCHAR 0035
ENCODING 53
SWIDTH 980 0
DWIDTH 49 0
BBX 48 37 0 -3
BITMAP
000001C0FC00
000007E0FE00
00000E78FE00
00003C1CFE00
0000718FFE00
0001E3E3FE00
00038FF1FE00
000F1FFC7E00
001C3FFE3E00
0078FFFF0E00
00E1FFFFC780
01C7FFFFE1C0
078FFFFFF8E0
0E3FFFFFFC78
3C7FFFFFFF1C
70FFFFFFFF8F
E0FFFFFFFF83
00FFFFFFFF80
00FFFFFFFF80
00FFFFFFFF80
00FFFFFFFF80
00FFF007FF80
00FFF007FF80
00FFF007FF80
00FFF007FF80
00FFF007FF80
00FFF007FF80
00FFF007FF80
00FFF007FF80
00FFF007FF80
00FFF007FF80
00FFF007FF80
00FFF007FF80
00FFF007FF80
00FFF007FF80
00FFF007FF80
00FFF007FF00
ENDCHAR
STARTCHAR 0036
ENCODING 54
SWIDTH 980 0
DWIDTH 49 0
BBX 48 51 0 -10
BITMAP
00F000003E00
01F800007F00
01FC00007F80
03FC0000FF80
03FC0000FF80
03FC00007F00
01FC00007F00
00F800003E00
000000000000
0FFF0001FFC0
3FFFC003FFE0
7FFFE007FFF0
7FFFF007FFF8
7FFFF00FFFF8
FFFFF00FFFF8
FFFFF00EFFBC
F7FF701EFFBC
F7FF701EFFFC
F7FF701DFFDC
F7FF703DFFDE
F7FF703DFFDE
F7FF703FFFEE
F7FF703BFFEF
F7FF707BFFEF
F7FF707BFFFF
F7FF7077FFF7
F7FF7077FFF7
F7FF7007FFF0
77FF700FFFF8
07DF000FFFF8
07DF000FFFF8
07DF000FFFFC
07DF001FFFFC
07DF001FFFFC
07DF0000F780
07DF0000F780
07DF0000F780
07DF0000F780
07DF0000F780
07DF0000F780
07DF0000F780
07DF0000F780
07DF0000F780
07DF0000F780
07DF0000F780
07DF0000F780
07DF0000F780
07DF0000F780
07DF0000F780
039E0000F780
000000002300
ENDCHAR
STARTCHAR 0037
ENCODING 55
SWIDTH 980 0
DWIDTH 49 0
BBX 48 37 0 -3
BITMAP
0007FF000000
001FFFE00000
007FCFF80000
00FF03FC0000
03FE01FE0000
07FC00FF0000
07FC00FF8000
0FFC00FFC000
1FFC00FFE000
1FFC00FFE000
3FFC01FFF000
3FFE01FFF000
7FFF87FFF000
7C0FFFC0F800
7807FF807800
7007FF003800
F003FF003800
E003FF003800
E003FF003800
F003FF003800
7007FF003800
7807FF807800
7C1FFFC1F800
7FFF03FFF000
3FFE01FFF000
3FFC00FFF000
3FFC00FFE000
1FFC00FFE000
0FFC00FFC000
0FFC00FFC000
07FC01FFC007
03FE01FFE01F
01FF07FCF1FF
007FFFF8FFFC
003FFFE07FF0
0007FF801F00
000020000000
ENDCHAR
STARTCHAR 0038
ENCODING 56
SWIDTH 980 0
DWIDTH 49 0
BBX 37 51 6 -10
BITMAP
FFFFFFFFF0
FFFFFFFFF8
FFFFFFFFF8
FFFFFFFFF8
F000000078
E000000038
E000000038
E000000038
E000000038
E000000038
E000000038
E000000038
F000000078
FFFFFFFFF8
FFFFFFFFF8
FFFFFFFFF8
FFFFFFFFF8
F03F07E078
F03E03E078
F03E03E078
F03E03E078
F03E03E078
F03E03E078
F03E03E078
FFFFFFFFF8
FFFFFFFFF8
FFFFFFFFF8
FFFFFFFFF8
F03E03E078
F03E03E078
F03E03E078
F03E03E078
F03E03E078
F03E03E078
F03E03E078
FFFFFFFFF8
FFFFFFFFF8
FFFFFFFFF8
FFFFFFFFF8
F03E03E078
F03E03E078
F03E03E078
F03E03E078
F03E03E078
F03E03E078
F03E03E078
FFFFFFFFF8
FFFFFFFFF8
FFFFFFFFF8
FFFFFFFFF8
3FFFFFFFE0
ENDCHAR
STARTCHAR 0039
ENCODING 57
SWIDTH 980 0
DWIDTH 49 0
BBX 48 46 0 -7
BITMAP
600000000000
F80000000000
7C0000000000
3E0000000000
1F0000000000
0F0000000000
078000000000
07C3FFFFFFFF
03C3FFFFFFFF
01E3FFFFFFFE
01E1FFFFFFFE
00E1FFFFFFFC
00F1FFFFFFFC
00F1FFFFFFF8
0071FFFFFFF8
0079FFFFFFF0
0078FFFFFFF0
0078FFFFFFE0
0038FFFFFFE0
003CFFFFFFC0
003CFFFFFFC0
003CFFFFFF80
003C7FFFFF80
001C7FFFFF80
001C00000000
001E00000000
001E00000000
001E00000000
001E00000000
001E00000000
000FFFFFFFF8
000FFFFFFFF8
000FFFFFFFF8
000000000000
000000000000
000000000000
000780000380
000FC0000FE0
001FE0001FF0
003FF0001FF0
003FF0001FF8
003FF0001FF8
003FF0001FF0
003FE0001FF0
001FE0000FE0
000F800007C0
ENDCHAR
STARTCHAR 003A
ENCODING 58
SWIDTH 980 0
DWIDTH 49 0
BBX 48 48 0 -9
BITMAP
00000001F800
0000000FFF00
0000001FFFC0
0000007FFFE0
000000FFFFF0
000001FFFFF8
000001FFF8FC
000003FFF03E
000003FFE03E
000007FFE03F
000007FFE03F
000007FFE03F
000007FFF07F
00000FFFF8FF
00000FFFFFFF
00000FFFFFFF
000007FFFFFF
000007FFFFFF
000007FFFFFF
000003FFFFFE
000033FFFFFE
000071FFFFFC
0000F9FFFFF8
0001F8FFFFF8
0003FC7FFFF0
0007FE3FFFC0
000FFF0FFF80
001FFF83FC00
003FFFE00000
007FFFF80000
00FFFF000000
01FFFF000000
03FFFF000000
07FFFF000000
0FFFF0000000
1FFFF0000000
3FFFF0000000
3FFC00000000
7FFC00000000
7FFC00000000
FFFC00000000
FFFC00000000
FFFC00000000
7FE000000000
7FE000000000
3FE000000000
1FE000000000
0FC000000000
ENDCHAR
STARTCHAR 003B
ENCODING 59
SWIDTH 980 0
DWIDTH 49 0
BBX 49 48 0 -8
BITMAP
000001C0000000
000001C0000000
000001C0000000
000001C0000000
000001C0000000
000001C0000000
000001C0000000
000001C0000000
000001C0000000
000001C0000000
000001C0000000
000001C0000000
000001C0000000
000001C0000000
000001C0000000
000001C0000000
000001C0000000
000001C0000000
000001C0000000
000001C0000000
000001C0000000
000001C0000000
FFFFFFFFFFFF80
FFFFFFFFFFFF80
FFFFFFFFFFFF80
FFFFFFFFFFFF80
000001C0000000
000001C0000000
000001C0000000
000001C0000000
000001C0000000
000001C0000000
000001C0000000
000001C0000000
000001C0000000
000001C0000000
000001C0000000
000001C0000000
000001C0000000
000001C0000000
000001C0000000
000001C0000000
000001C0000000
000001C0000000
000001C0000000
000001C0000000
000001C0000000
000001C0000000
ENDCHAR
STARTCHAR 003C
ENCODING 60
SWIDTH 980 0
DWIDTH 49 0
BBX 48 38 0 -3
BITMAP
000001C00000
000001C00000
000003E00000
000007F00000
000007F00000
00000FF80000
00000FF80000
00001F7C0000
00003E3E0000
00003E3E0000
00007C1F0000
00007C1F0000
0000F80F8000
0001F00FC000
0001F007C000
0003E003E000
0003E003E000
0007C001F000
000F8001F800
000F8000F800
001F00007C00
001F00007C00
003E00003E00
007C00003F00
007C00001F00
00F800000F80
00F800000F80
01F0000007C0
03E0000007C0
03E0000003E0
07C0000001F0
07C0000001F0
0F80000000F8
1F00000000F8
1F000000007C
3E000000003E
3E000000003E
FC000000001F
ENDCHAR
STARTCHAR 003D
ENCODING 61
SWIDTH 980 0
DWIDTH 49 0
BBX 48 48 0 -8
BITMAP
00000FF80000
0000FFFF0000
0003F007E000
000F8000F800
003C00003C00
007800000F00
00E000000380
01C0000001C0
0380000000E0
071FFFE00070
0E1FFFFC0030
0C03E07F0038
1C03E01F8018
1803E00F800C
3803E00FC00C
3003E007C006
3003E007C006
6003E007C006
6003E007C003
6003E00FC003
6003E00F8003
E003E01F0003
C003E07E0003
C003FFF80003
C003FFE00003
C003E3E00003
E003E1F00003
6003E0F80003
6003E0FC0003
6003E07C0003
6003E03E0007
7003E03F0006
3003E01F0006
3803E00F800C
1803E007C00C
1C03E007E01C
0C03F003E038
0E1FFE01FC30
071FFE00FC70
0380000000E0
01C0000001C0
00E000000380
007000000F00
003C00001E00
000F0000F800
0007F007E000
0000FFFF8000
00001FFC0000
ENDCHAR
STARTCHAR 003E
ENCODING 62
SWIDTH 980 0
DWIDTH 49 0
BBX 48 48 0 -8
BITMAP
00000FF80000
0000FFFF0000
0003F80FE000
000F8000F800
003E00003C00
007800000F00
00E000000380
01C0000001C0
0380000000E0
07000FFE3070
0E007C0FF030
0C00F001F038
1C03E000F818
1807C000780C
380F8000380C
300F00001806
301F00001806
603E00001806
603E00000003
603E00000003
607E00000003
E07E00000003
C07C00000003
C07C00000003
C07C00000003
C07E00000003
E07E00000003
607E00000003
607E00000003
603E00000003
603F00000007
701F00000006
301F80000C06
380F8000180C
1807C000300C
1C03E000E01C
0C01F803C038
0E007FFF0030
07001FFC0070
0380000000E0
01C0000001C0
00E000000380
007000000F00
003C00001E00
000F0000F800
0007F007E000
0000FFFF8000
00001FFC0000
ENDCHAR
STARTCHAR 003F
ENCODING 63
SWIDTH 980 0
DWIDTH 49 0
BBX 48 48 0 -8
BITMAP
000007F00000
0000FFFF0000
0003FFFFE000
000FFFFFF800
001FFFFFFC00
007FFFFFFE00
00FFC003FF80
01FF00007FC0
03FC00001FE0
07F800000FE0
07F0000007F0
0FE0000003F8
1FC0000001F8
1F80000000FC
3F00000000FC
3F000000007E
3E000000007E
7E000000003E
7E000000003F
7C000000003F
7C000000001F
7C000000001F
FC000000001F
FC000000001F
FC000000001F
FC000000001F
7C000000001F
7C000000001F
7C000000001F
7C000000003F
7E000000003F
7E000000003E
3F000000007E
3F000000007E
1F80000000FC
1FC0000001FC
0FC0000003F8
0FE0000007F0
07F000000FF0
03FC00001FE0
01FE00007FC0
00FF8001FF80
007FF80FFF00
003FFFFFFE00
000FFFFFF800
0007FFFFE000
0000FFFF8000
00001FFC0000
ENDCHAR
STARTCHAR 0040
ENCODING 64
SWIDTH 980 0
DWIDTH 49 0
BBX 48 48 0 -8
BITMAP
000000800000
000000800000
000001C00000
000001C00000
000003E00000
000003E00000
000007F00000
000007F00000
00000FF80000
00000FF80000
00001FFC0000
00001FFC0000
00003FFE0000
00003FFE0000
00007FFF0000
00007FFF0000
0000FFFF8000
0000FFFF8000
0001FFFFC000
0001FFFFC000
0003FFFFE000
0003FFFFE000
0007FFFFF000
0007FFFFF000
000FFFFFF800
000FFFFFF800
001FFFFFFC00
001FFFFFFC00
003FFFFFFE00
003FFFFFFE00
007FFFFFFF00
007FFFFFFF00
00FFFFFFFF80
00FFFFFFFF80
01FFFFFFFFC0
01FFFFFFFFC0
03FFFFFFFFE0
03FFFFFFFFE0
07FFFFFFFFF0
07FFFFFFFFF0
0FFFFFFFFFF8
0FFFFFFFFFF8
1FFFFFFFFFFC
1FFFFFFFFFFC
3FFFFFFFFFFE
3FFFFFFFFFFE
7FFFFFFFFFFF
FFFFFFFFFFFF
ENDCHAR
STARTCHAR 0041
ENCODING 65
SWIDTH 980 0
DWIDTH 49 0
BBX 48 46 0 -7
BITMAP
800020000000
E00030000000
F00038000000
F8003C000000
FC003F000000
FF003F800000
FF803FC00000
FFC03FF00000
FFF03FF80000
FFF83FFC0000
FFFC3FFF0000
FFFF3FFF8000
FFFF9FFFC000
FFFFC7FFF000
FFFFF3FFF800
FFFFF9FFFC00
FFFFFC7FFF00
FFFFFF3FFF80
FFFFFF9FFFC0
FFFFFFC7FFF0
FFFFFFF3FFF8
FFFFFFF9FFFC
FFFFFFFC7FFF
FFFFFFFE7FFF
FFFFFFF8FFFC
FFFFFFF3FFF8
FFFFFFE7FFF0
FFFFFF8FFFC0
FFFFFF3FFF80
FFFFFE7FFF00
FFFFF8FFFC00
FFFFF3FFF800
FFFFE7FFF000
FFFF8FFFC000
FFFF3FFF8000
FFFE3FFF0000
FFF83FFC0000
FFF03FF80000
FFE03FF00000
FF803FC00000
FF003F800000
FE003F000000
F8003C000000
F00038000000
E00030000000
800020000000
ENDCHAR
STARTCHAR 0042
ENCODING 66
SWIDTH 980 0
DWIDTH 49 0
BBX 42 51 3 -10
BITMAP
C0000000FFC0
F0000000FFC0
F8000000FFC0
FE000000FFC0
FF800000FFC0
FFC00000FFC0
FFF00000FFC0
FFFC0000FFC0
FFFE0000FFC0
FFFF8000FFC0
FFFFC000FFC0
FFFFF000FFC0
FFFFFC00FFC0
FFFFFE00FFC0
FFFFFF80FFC0
FFFFFFE0FFC0
FFFFFFF0FFC0
FFFFFFFCFFC0
FFFFFFFFFFC0
FFFFFFFFFFC0
FFFFFFFFFFC0
FFFFFFFFFFC0
FFFFFFFFFFC0
FFFFFFFFFFC0
FFFFFFFFFFC0
FFFFFFFFFFC0
FFFFFFFFFFC0
FFFFFFFFFFC0
FFFFFFFFFFC0
FFFFFFFFFFC0
FFFFFFFFFFC0
FFFFFFFFFFC0
FFFFFFFCFFC0
FFFFFFF8FFC0
FFFFFFE0FFC0
FFFFFF80FFC0
FFFFFF00FFC0
FFFFFC00FFC0
FFFFF000FFC0
FFFFE000FFC0
FFFF8000FFC0
FFFF0000FFC0
FFFC0000FFC0
FFF00000FFC0
FFE00000FFC0
FF800000FFC0
FE000000FFC0
FC000000FFC0
F0000000FFC0
C0000000FFC0
80000000FFC0
ENDCHAR
STARTCHAR 0043
ENCODING 67
SWIDTH 980 0
DWIDTH 49 0
BBX 37 51 6 -10
BITMAP
FFFF07FFF8
FFFF07FFF8
FFFF07FFF8
FFFF07FFF8
FFFF07FFF8
FFFF07FFF8
FFFF07FFF8
FFFF07FFF8
FFFF07FFF8
FFFF07FFF8
FFFF07FFF8
FFFF07FFF8
FFFF07FFF8
FFFF07FFF8
FFFF07FFF8
FFFF07FFF8
FFFF07FFF8
FFFF07FFF8
FFFF07FFF8
FFFF07FFF8
FFFF07FFF8
FFFF07FFF8
FFFF07FFF8
FFFF07FFF8
FFFF07FFF8
FFFF07FFF8
FFFF07FFF8
FFFF07FFF8
FFFF07FFF8
FFFF07FFF8
FFFF07FFF8
FFFF07FFF8
FFFF07FFF8
FFFF07FFF8
FFFF07FFF8
FFFF07FFF8
FFFF07FFF8
FFFF07FFF8
FFFF07FFF8
FFFF07FFF8
FFFF07FFF8
FFFF07FFF8
FFFF07FFF8
FFFF07FFF8
FFFF07FFF8
FFFF07FFF8
FFFF07FFF8
FFFF07FFF8
FFFF07FFF8
FFFF07FFF8
FFFF07FFF8
ENDCHAR
STARTCHAR 0044
ENCODING 68
SWIDTH 980 0
DWIDTH 49 0
BBX 41 51 4 -10
BITMAP
800000000000
C00000000000
F00000000000
FC0000000000
FE0000000000
FF8000000000
FFE000000000
FFF000000000
FFFC00000000
FFFF00000000
FFFF80000000
FFFFE0000000
FFFFF8000000
FFFFFC000000
FFFFFF000000
FFFFFF800000
FFFFFFE00000
FFFFFFF80000
FFFFFFFC0000
FFFFFFFF0000
FFFFFFFFC000
FFFFFFFFE000
FFFFFFFFF800
FFFFFFFFFE00
FFFFFFFFFF00
FFFFFFFFFF80
FFFFFFFFFE00
FFFFFFFFF800
FFFFFFFFF000
FFFFFFFFC000
FFFFFFFF8000
FFFFFFFE0000
FFFFFFF80000
FFFFFFF00000
FFFFFFC00000
FFFFFF000000
FFFFFE000000
FFFFF8000000
FFFFF0000000
FFFFC0000000
FFFF00000000
FFFE00000000
FFF800000000
FFE000000000
FFC000000000
FF0000000000
FC0000000000
F80000000000
E00000000000
800000000000
800000000000
ENDCHAR
STARTCHAR 0045
ENCODING 69
SWIDTH 980 0
DWIDTH 49 0
BBX 48 48 0 -8
BITMAP
00000FF00000
0000FFFF0000
0003FFFFE000
000FFFFFF800
001FFFFFFC00
007FFFFFFF00
00FFFFFFFF80
01FFFFFFFFC0
03FFFFFFFFE0
07FFFFFFFFE0
07FFFFFFFFF0
0FFFFFFFFFF8
1FFFFFFFFFF8
1FFFFFFFFFFC
3FFFF007FFFC
3FFFC001FFFE
3FFF8000FFFE
7FFF00007FFE
7FFE00007FFF
7FFE00003FFF
7FFC00003FFF
7FFC00001FFF
7FFC00001FFF
FFFC00001FFF
FFFC00001FFF
FFFC00001FFF
7FFC00001FFF
7FFC00003FFF
7FFE00003FFF
7FFE00003FFF
7FFF00007FFF
3FFF8000FFFE
3FFFC001FFFE
3FFFE007FFFC
1FFFFC1FFFFC
1FFFFFFFFFFC
0FFFFFFFFFF8
07FFFFFFFFF0
07FFFFFFFFF0
03FFFFFFFFE0
01FFFFFFFFC0
00FFFFFFFF80
007FFFFFFF00
003FFFFFFE00
000FFFFFF800
0003FFFFE000
0000FFFF8000
00001FFC0000
ENDCHAR
STARTCHAR 0046
ENCODING 70
SWIDTH 980 0
DWIDTH 49 0
BBX 47 48 1 -8
BITMAP
FFFFFFFFFFFE
FFFFFFFFFFFE
FFFFFFFFFFFE
FFFFFFFFFFFE
FFFFFFFFFFFE
FFFFFFFFFFFE
FFFFFFFFFFFE
FFFFFFFFFFFE
FFFFFFFFFFFE
FFFFFFFFFFFE
FFFFFFFFFFFE
FFFFFFFFFFFE
FFFFFFFFFFFE
FFFFFFFFFFFE
FFFFFFFFFFFE
FFFFFFFFFFFE
FFFFFFFFFFFE
FFFFFFFFFFFE
FFFFFFFFFFFE
FFFFFFFFFFFE
FFFFFFFFFFFE
FFFFFFFFFFFE
FFFFFFFFFFFE
FFFFFFFFFFFE
FFFFFFFFFFFE
FFFFFFFFFFFE
FFFFFFFFFFFE
FFFFFFFFFFFE
FFFFFFFFFFFE
FFFFFFFFFFFE
FFFFFFFFFFFE
FFFFFFFFFFFE
FFFFFFFFFFFE
FFFFFFFFFFFE
FFFFFFFFFFFE
FFFFFFFFFFFE
FFFFFFFFFFFE
FFFFFFFFFFFE
FFFFFFFFFFFE
FFFFFFFFFFFE
FFFFFFFFFFFE
FFFFFFFFFFFE
FFFFFFFFFFFE
FFFFFFFFFFFE
FFFFFFFFFFFE
FFFFFFFFFFFE
FFFFFFFFFFFE
FFFFFFFFFFFE
ENDCHAR
STARTCHAR 0047
ENCODING 71
SWIDTH 980 0
DWIDTH 49 0
BBX 42 51 3 -10
BITMAP
7FE000000040
7FE0000001C0
7FE0000003C0
7FE000000FC0
7FE000003FC0
7FE000007FC0
7FE00001FFC0
7FE00007FFC0
7FE0000FFFC0
7FE0003FFFC0
7FE000FFFFC0
7FE001FFFFC0
7FE007FFFFC0
7FE00FFFFFC0
7FE03FFFFFC0
7FE0FFFFFFC0
7FE1FFFFFFC0
7FE7FFFFFFC0
7FFFFFFFFFC0
7FFFFFFFFFC0
7FFFFFFFFFC0
7FFFFFFFFFC0
7FFFFFFFFFC0
7FFFFFFFFFC0
7FFFFFFFFFC0
FFFFFFFFFFC0
7FFFFFFFFFC0
7FFFFFFFFFC0
7FFFFFFFFFC0
7FFFFFFFFFC0
7FFFFFFFFFC0
7FFFFFFFFFC0
7FEFFFFFFFC0
7FE3FFFFFFC0
7FE0FFFFFFC0
7FE07FFFFFC0
7FE01FFFFFC0
7FE007FFFFC0
7FE003FFFFC0
7FE000FFFFC0
7FE0003FFFC0
7FE0001FFFC0
7FE00007FFC0
7FE00003FFC0
7FE00000FFC0
7FE000003FC0
7FE000001FC0
7FE0000007C0
7FE0000001C0
7FE0000000C0
7FE000000040
ENDCHAR
STARTCHAR 0048
ENCODING 72
SWIDTH 980 0
DWIDTH 49 0
BBX 48 46 0 -7
BITMAP
000000020001
000000060003
0000000E0007
0000003E000F
0000007E003F
000000FE007F
000003FE00FF
000007FE03FF
00000FFE07FF
00003FFE0FFF
00007FFE3FFF
0000FFFE7FFF
0003FFF8FFFF
0007FFF3FFFF
000FFFE7FFFF
003FFF8FFFFF
007FFF3FFFFF
00FFFE7FFFFF
01FFF8FFFFFF
07FFF3FFFFFF
0FFFE7FFFFFF
1FFF8FFFFFFF
7FFF3FFFFFFF
FFFF3FFFFFFF
3FFF8FFFFFFF
0FFFE7FFFFFF
07FFF3FFFFFF
03FFF8FFFFFF
00FFFC7FFFFF
007FFF3FFFFF
003FFF9FFFFF
000FFFC7FFFF
0007FFF3FFFF
0003FFF9FFFF
0000FFFC7FFF
00007FFE3FFF
00003FFE1FFF
00000FFE07FF
000007FE03FF
000003FE01FF
000000FE007F
0000007E003F
0000003E001F
0000000E0007
000000060003
000000020001
ENDCHAR
STARTCHAR 0049
ENCODING 73
SWIDTH 980 0
DWIDTH 49 0
BBX 47 48 1 -8
BITMAP
F08000000000
F0C000000000
F0F000000000
F0FC00000000
F0FE00000000
F0FE00000000
F0FE00000000
F0FE10000000
F0FE1C000000
F0FE1E000000
F0FE1F800000
F0FE1FE00000
F0FE1FF00000
F0FE1FFC0000
F0FE1FFF0000
F0FE1FFF8000
F0FE1FFFE000
F0FE1FFFF800
F0FE1FFFFC00
F0FE1FFFFF00
F0FE1FFFFF80
F0FE1FFFFFE0
F0FE1FFFFFF8
F0FE1FFFFFFC
F0FE1FFFFFFE
F0FE1FFFFFF8
F0FE1FFFFFE0
F0FE1FFFFFC0
F0FE1FFFFF00
F0FE1FFFFE00
F0FE1FFFF800
F0FE1FFFE000
F0FE1FFFC000
F0FE1FFF0000
F0FE1FFC0000
F0FE1FF80000
F0FE1FE00000
F0FE1F800000
F0FE1F000000
F0FE1C000000
F0FE18000000
F0FE00000000
F0FE00000000
F0FE00000000
F0FC00000000
F0F000000000
F0E000000000
F08000000000
ENDCHAR
STARTCHAR 004A
ENCODING 74
SWIDTH 980 0
DWIDTH 49 0
BBX 48 47 0 -8
BITMAP
000000800000
000001C00000
000003E00000
000007E00000
000007F00000
00000FF80000
00001FFC0000
00003FFC0000
00003FFE0000
00007FFF0000
0000FFFF8000
0001FFFF8000
0001FFFFC000
0003FFFFE000
0007FFFFF000
000FFFFFF000
000FFFFFF800
001FFFFFFC00
003FFFFFFE00
007FFFFFFE00
007FFFFFFF00
00FFFFFFFF80
01FFFFFFFFC0
03FFFFFFFFC0
03FFFFFFFFE0
07FFFFFFFFF0
0FFFFFFFFFF8
1FFFFFFFFFFC
1FFFFFFFFFFC
3FFFFFFFFFFE
7FFFFFFFFFFF
800000000000
000000000000
000000000000
000000000000
FFFFFFFFFFFF
FFFFFFFFFFFF
FFFFFFFFFFFF
FFFFFFFFFFFF
FFFFFFFFFFFF
FFFFFFFFFFFF
FFFFFFFFFFFF
FFFFFFFFFFFF
FFFFFFFFFFFF
FFFFFFFFFFFF
FFFFFFFFFFFF
FFFFFFFFFFFF
ENDCHAR
STARTCHAR 004B
ENCODING 75
SWIDTH 980 0
DWIDTH 49 0
BBX 47 49 1 -9
BITMAP
0000000003C0
0000000007C0
000000000FC0
000000001FC0
000000001FC0
000000003FC0
000000003F80
000000007F00
000000007F00
00000000FE00
00000000FE00
00000001FC00
00000003FC00
00000003F800
00000007F800
1FFFFFFFF000
3FFFFFFFE000
7FFFFFFFE000
7FFFFFFFE000
FFFFFFFFF000
FFFFFFFFF800
0FFFFFFFF800
003FFFFFFC00
0001FFFFFC00
00000FFFFE00
000003FFFE00
000003FFFF00
000007FFFF80
000007F7FF80
00000FE3FFC0
00000FE1FFC0
00001FC0FFE0
00001F807FE0
00003F807FF0
00003F003FF8
00007E001FF8
001FFE000FFC
003FFC0007FC
007FFC0003FE
00FFFC0001FE
007FFC0001FE
0007FE0000FC
00007E000078
00003F000038
00003F000010
00001E000000
00000E000000
000004000000
000004000000
ENDCHAR
STARTCHAR 004C
ENCODING 76
SWIDTH 980 0
DWIDTH 49 0
BBX 41 51 4 -10
BITMAP
000000008000
000000008000
00000001C000
00000001C000
00000003E000
0007FF83E000
003FFFFFE000
00FFFFFFF000
01FFFFFFF000
03FFFFFFF800
07FFFFFFF800
0FFFFFFFF800
1F800FFFFC00
3C0001FFFC00
700000FFFE00
C00000FFFE00
000001FFFF00
000003FFFF00
000003FFFF00
000007FFFF80
00000FFFF000
00000FF80000
000018000000
000000000000
000000000000
000000000000
000000000000
000004000000
0001F8000000
01FFF8000000
FFFFF0000000
FFFFE0000000
7FFFE0000000
7FFFC0000000
3FFF80000180
3FFF80000300
3FFF80001E00
1FFFE0007C00
1FFFFE0FF800
0FFFFFFFF000
0FFFFFFFE000
0FFFFFFFC000
07FFFFFF8000
07FFFFFF0000
03E3FFF80000
03C000000000
03C000000000
01C000000000
018000000000
008000000000
008000000000
ENDCHAR
STARTCHAR 004D
ENCODING 77
SWIDTH 980 0
DWIDTH 49 0
BBX 48 40 0 -4
BITMAP
0001FFE00000
000FFFF80000
003FFFFE0000
007FFFFF8000
01FFFFFFC000
03FFFFFFE000
07FF003FF000
07FC000FF800
0FF00007FC00
1FE00001FC00
1FC00000FE00
3F800000FE00
3F8000007F00
7F0000003F00
7F0000003F80
7E0000003F80
7E00001FFFFF
FE000007FFFE
FE000007FFFC
FC000003FFF8
FC000001FFF8
FE000000FFF0
FE0000007FE0
7E0000003FC0
7E0000003F80
7F0000001F00
7F0000000F00
3F8000000600
3F8000000400
1FC000000000
1FE000000000
0FF000040000
07FC000C0000
07FF003E0000
03FFFFFE0000
01FFFFFE0000
007FFFFF0000
003FFFFE0000
000FFFFC0000
0003FFE00000
ENDCHAR
STARTCHAR 004E
ENCODING 78
SWIDTH 980 0
DWIDTH 49 0
BBX 48 34 0 -1
BITMAP
0000000000F8
0000000001FC
0000000003FE
0000000007FF
000000000FFF
000000001FFF
000000003FFF
000000007FFE
00000000FFFC
00000001FFF8
0F000003FFF0
1F800007FFE0
3FC0000FFFC0
7FE0001FFF80
7FF0003FFF00
FFF8007FFE00
7FFC00FFFC00
7FFE01FFF800
3FFF03FFF000
1FFF87FFE000
0FFFCFFFC000
07FFFFFF8000
03FFFFFF0000
01FFFFFE0000
00FFFFFC0000
007FFFF80000
003FFFF00000
001FFFE00000
000FFFC00000
0007FF800000
0003FF000000
0001FE000000
0000FC000000
000078000000
ENDCHAR
STARTCHAR 004F
ENCODING 79
SWIDTH 980 0
DWIDTH 49 0
BBX 48 48 0 -8
BITMAP
1F8000000000
3FFE00000000
7FFFE0000000
7FFFFC000000
FFFFFF000000
7FFFFFC00000
7FFFFFE00000
7FFFFFF80000
1FFFFFFC0000
003FFFFF0000
0001FFFF8000
00003FFFC000
00000FFFE000
000003FFF000
1F8001FFF800
3FF8007FFC00
7FFF003FFE00
7FFFC01FFF00
FFFFF007FF00
7FFFFC03FF80
7FFFFE01FFC0
7FFFFF01FFC0
1FFFFF80FFE0
007FFFC07FE0
000FFFE03FF0
0003FFF03FF0
0000FFF81FF8
00007FF81FF8
00001FFC0FFC
00000FFE0FFC
000007FE07FC
000007FF07FE
03F003FF03FE
0FF801FF03FE
1FFC01FF83FE
3FFE00FF83FF
7FFF00FF81FF
7FFF00FFC1FF
7FFF007FC1FF
FFFF807FC1FF
FFFF807FC1FF
7FFF007FC1FF
7FFF007FC1FF
7FFF007FC1FF
3FFE007FC1FF
1FFC003FC0FF
0FF8003F80FE
03E0000F003C
ENDCHAR
STARTCHAR 0050
ENCODING 80
SWIDTH 980 0
DWIDTH 49 0
BBX 45 51 2 -10
BITMAP
00007FF00000
0003FFFC0000
000FFFFF0000
001FFFFFC000
003FFFFFE000
007FFFFFF000
00FFFFFFF800
01FFE07FF800
01FF800FFC00
03FF0007FE00
03FC0003FE00
07FC0001FF00
07F80000FF00
0FF00000FF00
0FF000007F00
0FF000007F80
0FE000007F80
0FE000007F80
0FE000007F80
0FE000007F80
0FE000007F80
0FE000007F80
FFFFFFFFFFF8
FFFFFFFFFFF8
FFFFFFFFFFF8
FFFFFFFFFFF8
FFFFFFFFFFF8
FFFFFFFFFFF8
FFFFFFFFFFF8
FFFFF0FFFFF8
FFFFE07FFFF8
FFFFE03FFFF8
FFFFE03FFFF8
FFFFE03FFFF8
FFFFF07FFFF8
FFFFF8FFFFF8
FFFFF0FFFFF8
FFFFF0FFFFF8
FFFFF0FFFFF8
FFFFF0FFFFF8
FFFFF07FFFF8
FFFFF07FFFF8
FFFFF07FFFF8
FFFFF07FFFF8
FFFFFFFFFFF8
FFFFFFFFFFF8
FFFFFFFFFFF8
FFFFFFFFFFF8
FFFFFFFFFFF8
FFFFFFFFFFF8
FFFFFFFFFFF8
ENDCHAR
STARTCHAR 0051
ENCODING 81
SWIDTH 980 0
DWIDTH 49 0
BBX 48 48 0 -8
BITMAP
003FFFFFFE00
003FFFFFFE00
003FFFFFFE00
003FFFFFFE00
003FFFFFFE00
003FFFFFFE00
003FFFFFFE00
003FFFFFFE00
003FFFFFFE00
003FFFFFFE00
003FFFFFFE00
003FFFFFFE00
003FFFFFFE00
003FFFFFFE00
003FFFFFFE00
003FFFFFFE00
003FFFFFFE00
003FFFFFFE00
000000C00000
000000C00000
000000C00000
000000C00000
000000C00000
000000C00000
000000C00000
003FFFFFFF00
003FFFFFFF00
003000000300
003000000300
003000000300
003000000300
FFFFF80FFFFF
FFFFF80FFFFF
FFFFF80FFFFF
FFFFF80FFFFF
FFFFF80FFFFF
FFFFF80FFFFF
FFFFF80FFFFF
FFFFF80FFFFF
FFFFF80FFFFF
FFFFF80FFFFF
FFFFF80FFFFF
FFFFF80FFFFF
FFFFF80FFFFF
FFFFF80FFFFF
FFFFF80FFFFF
FFFFF80FFFFF
FFFFF80FFFFF
ENDCHAR
STARTCHAR 0052
ENCODING 82
SWIDTH 980 0
DWIDTH 49 0
BBX 48 28 0 2
BITMAP
000038000000
00003E000000
00001F000000
00001F800000
00000FC00000
00FFFFF0FF00
03FFFFF8FFE0
07FFFFFCFFF0
0FFFFFFCFFF8
1FFFFFF8FFFC
3FFFFFE0FFFE
3FC01FC001FE
7F001F80007F
7E001F00007F
7E003C00003F
7E003800003F
FC000000003F
FE000000003F
7E000000003F
7E000000003F
7F000000007F
7F80000000FE
3FFFFFFFFFFE
1FFFFFFFFFFC
1FFFFFFFFFF8
0FFFFFFFFFF0
03FFFFFFFFE0
00FFFFFFFF80
ENDCHAR
STARTCHAR 0053
ENCODING 83
SWIDTH 980 0
DWIDTH 49 0
BBX 48 40 0 -4
BITMAP
00000000E000
00000003F000
00000007F800
0000000FFC00
0000001FFE00
0000003FFF00
0000007FFF80
7FFFF0FFFFC0
FFFFF9FFFFE0
FFFFFBFFFFF0
FFFFF7FFFFF8
FFFFEFFFFFFC
FFFFDFFFFFFE
FFFFBFFFFFFF
FFFFBFF3FBFF
FFFFBFC3F8FF
FF003F03F83F
FE1FDCF3FBC6
FE7FE3F3FBF1
FE7FFFF3FBFF
FCFFFFF3FBFF
FCFFFFF3FBFF
FCFFFFF3FBFE
FDFFFFF3FBFE
F9FFFFF3FBFE
F9FFFFF3FBFE
F9FFFFF3FBFC
F3FFFFF3FBFC
F3FFFFF3FBFC
F3FFFFF3FBFC
F7FFFFF3FBF8
E7FFFFFBFBF8
E7FFFFF807F8
E7FFFFFF1FF0
EFFFFFFFFFF0
CFFFFFFFFFF0
4FFFFFFFFFF0
1FFFFFFFFFE0
1FFFFFFFFFE0
0FFFFFFFFFC0
ENDCHAR
STARTCHAR 0054
ENCODING 84
SWIDTH 980 0
DWIDTH 49 0
BBX 48 48 0 -8
BITMAP
00000FF00000
0000FFFF0000
0003FFFFE000
000FFFFFF800
003FFFFFFC00
007FFFFFFE00
00FFFFFFFF80
01FFFC1FFFC0
03FFC001FFE0
07FF00007FE0
07FC00003FF0
0FFE00001FF8
1FFF00000FF8
1FFF800007FC
3FDFC00003FC
3FCFE00001FE
3F87F00001FE
7F83F80000FE
7F01FC0000FF
7F00FE0000FF
7F007F00007F
FF003F80007F
FF001FC0007F
FE000FE0007F
FE0007F0007F
FF0003F8007F
FF0001FC007F
7F0000FE007F
7F00007F007F
7F00003F80FF
7F80001FC0FE
7F80000FE1FE
3FC00007F1FE
3FC00003FBFC
1FE00001FFFC
1FF00000FFF8
0FF800007FF8
0FFC00003FF0
07FF00007FF0
03FF8001FFE0
01FFF80FFFC0
00FFFFFFFF80
007FFFFFFF00
003FFFFFFC00
000FFFFFF800
0007FFFFE000
0000FFFF8000
00001FFC0000
ENDCHAR
STARTCHAR 0055
ENCODING 85
SWIDTH 980 0
DWIDTH 49 0
BBX 48 42 0 -5
BITMAP
000000C00000
000001C00000
000003C00000
000007C00000
00000FC00000
00001FC00000
00003FC00000
00007FC00000
0000FFC00000
0001FFC00000
0003FFC00000
0003FFC00000
7FFFFFC00000
FFFFFFC00000
FFFFFFC00000
FFFFFFC00000
FFFFFFC00000
FFFFFFC00000
FFFFFFC1FFFF
FFFFFFC1FFFF
FFFFFFC1FFFF
FFFFFFC1FFFF
FFFFFFC1FFFF
FFFFFFC1FFFF
FFFFFFC00000
FFFFFFC00000
FFFFFFC00000
FFFFFFC00000
FFFFFFC00000
0007FFC00000
0003FFC00000
0001FFC00000
0001FFC00000
0000FFC00000
00007FC00000
00003FC00000
00001FC00000
00000FC00000
000007C00000
000003C00000
000001C00000
000000C00000
ENDCHAR
STARTCHAR 0056
ENCODING 86
SWIDTH 980 0
DWIDTH 49 0
BBX 48 44 0 -6
BITMAP
000000600000
000000E00000
000001F00000
000003F00000
000007F00000
00000FF00000
00000FF00000
00001FF00000
00003FF00000
00007FF00000
0000FFF00000
0001FFF00000
0003FFF00000
7FFFFFF007C0
FFFFFFF007C0
FFFFFFF007C0
FFFFFFF007C0
FFFFFFF007C0
FFFFFFF007C0
FFFFFFF1FFFF
FFFFFFF3FFFF
FFFFFFF3FFFF
FFFFFFF3FFFF
FFFFFFF3FFFF
FFFFFFF1FFFF
FFFFFFF007C0
FFFFFFF007C0
FFFFFFF007C0
FFFFFFF007C0
FFFFFFF007C0
7FFFFFF007C0
0003FFF00000
0001FFF00000
0000FFF00000
00007FF00000
00007FF00000
00003FF00000
00001FF00000
00000FF00000
000007F00000
000003F00000
000001F00000
000000E00000
000000600000
ENDCHAR
STARTCHAR 0057
ENCODING 87
SWIDTH 980 0
DWIDTH 49 0
BBX 48 47 0 -8
BITMAP
00FE00007FC0
03FFC001FFE0
0FFFE003FFF8
1FFFF00FFFFC
3FFFF81FFFFC
3FFFFC3FFFFE
7FFFFE3FFFFF
7FFFFE7FFFFF
7FFFFFFFFFFF
FFFFFFFFFFFF
FFFFFFFFFFFF
7FFFFFFFFFFF
7FFFFFFFFFFF
7FFFFFFFFFFF
7FFFFFFFFFFF
3FFFFFFFFFFF
3FFFFFFFFFFE
1FFFFFFFFFFE
1FFFFFFFFFFC
0FFFFFFFFFF8
07FFFFFFFFF8
03FFFFFFFFF0
01FFFFFFFFE0
00FFFFFFFFC0
00FFFFFFFF80
007FFFFFFF00
001FFFFFFE00
000FFFFFFC00
0007FFFFF800
0003FFFFF000
0001FFFFE000
0000FFFFC000
00007FFF8000
00003FFF0000
00003FFF0000
00001FFE0000
00000FFC0000
000007F80000
000003F00000
000003E00000
000001E00000
000001C00000
000000C00000
000000800000
000000800000
000000800000
000000800000
ENDCHAR
STARTCHAR 0058
ENCODING 88
SWIDTH 980 0
DWIDTH 49 0
BBX 40 51 4 -10
BITMAP
007C000000
007E000000
007E000000
007E000000
007E000000
007E000000
007E000000
007E000000
007E000000
007E000000
007E000000
007E000000
007E000000
007E000000
007E3E0000
007E3E0000
007E3E0C00
007E3E1E00
007E3E3F0E
007E3E3F1F
007E3E3F1F
787E3E3F1F
7C7E7F3F1F
FC7FFFFFFF
FC7FFFFFFF
FC7FFFFFFF
FC7FFFFFFF
FC7FFFFFFF
FC7FFFFFFF
FC7FFFFFFF
FC7FFFFFFF
FC7FFFFFFF
FFFFFFFFFF
FFFFFFFFFF
FFFFFFFFFF
7FFFFFFFFF
7FFFFFFFFF
3FFFFFFFFF
3FFFFFFFFF
1FFFFFFFFF
1FFFFFFFFF
0FFFFFFFFF
07FFFFFFFF
07FFFFFFFF
03FFFFFFFF
01FFFFFFFF
01FFFFFFFF
00FFFFFFFF
007FFFFFFF
003FFFFFFE
001FFFFFF8
ENDCHAR
STARTCHAR 0059
ENCODING 89
SWIDTH 980 0
DWIDTH 49 0
BBX 36 51 6 -9
BITMAP
0000F80000
0000F80000
0000F80000
0000F80000
0070F86000
00F8F8F000
00F8F8F800
00F8F8F800
00F8F8F800
00F8F8F800
00F8F8F860
00F8F8F8F0
00F8F8F8F0
00F8F8F8F0
00F8F8F8F0
00F8F8F8F0
00F8F8F8F0
00F8F8F8F0
00F8F8F8F0
00F8F8F8F0
00F8F8F8F0
00F8F8F8F0
00F8F8F8F0
20F8F8F8F0
F8F8F8F9F0
F8FFFFFFF0
F8FFFFFFF0
F8FFFFFFF0
F8FFFFFFF0
F8FFFFFFF0
F8FFFFFFF0
F8FFFFFFF0
F8FFFFFFF0
F8FFFFFFF0
FFFFFFFFF0
FFFFFFFFF0
FFFFFFFFF0
7FFFFFFFF0
7FFFFFFFF0
3FFFFFFFF0
3FFFFFFFF0
1FFFFFFFF0
0FFFFFFFF0
0FFFFFFFF0
07FFFFFFF0
03FFFFFFF0
03FFFFFFF0
01FFFFFFF0
00FFFFFFF0
00FFFFFFE0
003FFFFF80
ENDCHAR
STARTCHAR 005A
ENCODING 90
SWIDTH 980 0
DWIDTH 49 0
BBX 49 49 0 -8
BITMAP
0000000001C000
0000001001E000
0000003801E000
0000007800F000
000000F800F000
000001F800F800
000003F8007800
000007F8307C00
00000FF8787C00
00000FF8783C00
00001FF83C3E00
00003FF83C3E00
00007FF83C3E00
0000FFF83E1E00
0001FFF81E1F00
3FFFFFF81E1F00
FFFFFFF81E1F00
FFFFFFF81E1F00
FFFFFFF81F1F00
FFFFFFF81F1F00
FFFFFFF81F1F00
FFFFFFF81F0F00
FFFFFFF81F0F80
FFFFFFF81F0F80
FFFFFFF81F0F80
FFFFFFF81F0F00
FFFFFFF81F0F00
FFFFFFF81F1F00
FFFFFFF81F1F00
FFFFFFF81F1F00
FFFFFFF81E1F00
FFFFFFF81E1F00
FFFFFFF81E1F00
FFFFFFF81E1E00
0003FFF83E1E00
0001FFF83C3E00
0000FFF83C3E00
00007FF83C3C00
00003FF8783C00
00001FF8787C00
00000FF8707800
00000FF8007800
000007F800F800
000003F800F000
000001F800F000
000000F801E000
0000007801E000
0000003801C000
00000010000000
ENDCHAR
STARTCHAR 005B
ENCODING 91
SWIDTH 980 0
DWIDTH 49 0
BBX 47 47 1 -8
BITMAP
C00000000000
F00000000000
FC0000000000
FF0000000000
FFC000000000
FFF000000000
FFFC00000000
FFFF00000000
FFFFC0000000
FFFFF0000000
FFFFFC000000
FFFFFF000000
FFFFFFC00000
FFFFFFF00000
FFFFFFFC0000
FFFFFFFF0000
FFFFFFFFC000
FFFFFFFFF000
FFFFFFFFFC00
FFFFFFFFFF00
FFFFFFFFFFC0
FFFFFFFFFFF0
FFFFFFFFFFFC
FFFFFFFFFFFE
FFFFFFFFFFF0
FFFFFFFFFFC0
FFFFFFFFFF00
FFFFFFFFFC00
FFFFFFFFF000
FFFFFFFFC000
FFFFFFFF0000
FFFFFFFC0000
FFFFFFF00000
FFFFFFC00000
FFFFFF000000
FFFFFC000000
FFFFF0000000
FFFFC0000000
FFFF00000000
FFFC00000000
FFF000000000
FFC000000000
FF0000000000
FC0000000000
F00000000000
C00000000000
800000000000
ENDCHAR
STARTCHAR 005C
ENCODING 92
SWIDTH 980 0
DWIDTH 49 0
BBX 48 48 0 -8
BITMAP
FFFFFFFFFFFF
7FFFFFFFFFFF
3FFFFFFFFFFE
3FFFFFFFFFFE
1FFFFFFFFFFC
1FFFFFFFFFFC
0FFFFFFFFFF8
0FFFFFFFFFF8
07FFFFFFFFF0
07FFFFFFFFF0
03FFFFFFFFE0
03FFFFFFFFE0
01FFFFFFFFC0
01FFFFFFFFC0
00FFFFFFFF80
00FFFFFFFF80
007FFFFFFF00
007FFFFFFF00
003FFFFFFE00
003FFFFFFE00
001FFFFFFC00
001FFFFFFC00
000FFFFFF800
000FFFFFF800
0007FFFFF000
0007FFFFF000
0003FFFFE000
0003FFFFE000
0001FFFFC000
0001FFFFC000
0000FFFF8000
0000FFFF8000
00007FFF0000
00007FFF0000
00003FFE0000
00003FFE0000
00001FFC0000
00001FFC0000
00000FF80000
00000FF80000
000007F00000
000007F00000
000003E00000
000003E00000
000001C00000
000001C00000
000000800000
000000800000
ENDCHAR
STARTCHAR 005D
ENCODING 93
SWIDTH 980 0
DWIDTH 49 0
BBX 48 48 0 -8
BITMAP
000000000001
000000000003
00000000000F
00000000003F
0000000000FF
0000000003FF
000000000FFF
000000003FFF
00000000FFFF
00000003FFFF
0000000FFFFF
0000003FFFFF
000000FFFFFF
000003FFFFFF
00000FFFFFFF
00003FFFFFFF
0000FFFFFFFF
0003FFFFFFFF
000FFFFFFFFF
003FFFFFFFFF
00FFFFFFFFFF
03FFFFFFFFFF
0FFFFFFFFFFF
3FFFFFFFFFFF
FFFFFFFFFFFF
1FFFFFFFFFFF
07FFFFFFFFFF
01FFFFFFFFFF
007FFFFFFFFF
001FFFFFFFFF
0007FFFFFFFF
0001FFFFFFFF
00007FFFFFFF
00001FFFFFFF
000007FFFFFF
000001FFFFFF
0000007FFFFF
0000001FFFFF
00000007FFFF
00000001FFFF
000000007FFF
000000001FFF
0000000007FF
0000000001FF
00000000007F
00000000001F
000000000007
000000000001
ENDCHAR
STARTCHAR 005E
ENCODING 94
SWIDTH 980 0
DWIDTH 49 0
BBX 48 17 0 7
BITMAP
008000000080
0100000000C0
030000000060
070000000070
0E0000000078
1E000000003C
3FFFFFFFFFFE
7FFFFFFFFFFF
FFFFFFFFFFFF
3FFFFFFFFFFE
1E000000003C
0E0000000038
070000000070
030000000060
010000000040
008000000080
008000000100
ENDCHAR
STARTCHAR 005F
ENCODING 95
SWIDTH 980 0
DWIDTH 49 0
BBX 19 51 15 -10
BITMAP
00C000
01E000
03F000
07F800
0FFC00
1FFE00
3FFF00
71F180
81F060
01F000
01F000
01F000
01F000
01F000
01F000
01F000
01F000
01F000
01F000
01F000
01F000
01F000
01F000
01F000
01F000
01F000
01F000
01F000
01F000
01F000
01F000
01F000
01F000
01F000
01F000
01F000
01F000
01F000
01F000
01F000
01F000
81F020
61F0C0
3DF780
1FFF00
0FFE00
07FC00
03F800
01F000
00E000
004000
ENDCHAR
STARTCHAR 0060
ENCODING 96
SWIDTH 980 0
DWIDTH 49 0
BBX 19 51 15 -10
BITMAP
01F000
01F000
01F000
01F000
01F000
01F000
01F000
01F000
01F000
01F000
01F000
01F000
01F000
01F000
01F000
01F000
01F000
01F000
01F000
01F000
01F000
01F000
01F000
01F000
01F000
01F000
01F000
01F000
01F000
01F000
01F000
01F000
01F000
01F000
01F000
01F000
01F000
01F000
01F000
01F000
01F000
81F020
61F0C0
3DF780
1FFF00
0FFE00
07FC00
03F800
01F000
00E000
004000
ENDCHAR
STARTCHAR 0061
ENCODING 97
SWIDTH 980 0
DWIDTH 49 0
BBX 49 28 0 2
BITMAP
00000000004000
00000000008000
0000000000C000
00003F0001C000
0003FFF001C000
000FFFFC03E000
001FFFFF03E000
003FFFFFC7E000
007FFFFFF7E000
00FFFFFFFFF000
01FFFFFFFFF000
03FFFFFFFFF000
07FFFFFFFFF000
07FFFFFFFFF800
0FF007FFFFF800
0FC000FFFFF800
1F00003FFFF800
3C00001FFFFC00
3800000FFFFC00
6000001FFFFC00
4000003FFFFE00
8000007FFFFE00
0000007FFFFE00
000000FFFFFE00
000001FFFFFF00
000003FFFFFF00
000007FFFFFF00
00000FFFFFFF80
ENDCHAR
STARTCHAR 0062
ENCODING 98
SWIDTH 980 0
DWIDTH 49 0
BBX 47 27 1 2
BITMAP
010000000000
010000000000
030000000000
038007FF0000
03C03FFFE000
07C0FFFFF000
07E3FFFFF800
07E7FFFFFE00
07FFFFFFFF00
0FFFFFFFFF00
0FFFFFFFFF80
0FFFFFFFFFC0
0FFFFFFFFFE0
1FFFFFE01FE0
1FFFFF0003F0
1FFFFC0000F0
3FFFF8000078
3FFFF000001C
3FFFF800000C
3FFFFC000004
7FFFFC000002
7FFFFE000000
7FFFFF000000
7FFFFF800000
FFFFFFC00000
FFFFFFC00000
FFFFFFF00000
ENDCHAR
STARTCHAR 0063
ENCODING 99
SWIDTH 980 0
DWIDTH 49 0
BBX 47 51 1 -9
BITMAP
00001FF00000
00003FF80000
00003FF80000
00003FFC0000
00003FFC0000
00003FFC0000
00003FFC0000
00003FFC0000
00003FFC0000
00003FFC0000
00003FFC0000
00003FFC0000
00003FFC0000
00003FFC0000
00003FFC0000
00003FFC0000
00003FFC0000
00003FFC0000
00003FFC0000
00003FFC0000
00003FFC0000
00003FFC0000
00003FFC0000
30003FFC0018
7E003FFC01FC
FF803FFC07FE
FFE03FFC1FFE
FFF83FFC7FFE
FFFE3FFDFFFE
FFFFFFFFFFFE
7FFFFFFFFFFC
7FFFFFFFFFF8
3FFFFFFFFFF0
1FFFFFFFFFE0
0FFFFFFFFFC0
07FFFFFFFF80
03FFFFFFFF00
01FFFFFFFE00
00FFFFFFFC00
007FFFFFF800
003FFFFFF000
001FFFFFE000
000FFFFFC000
0007FFFF8000
0003FFFF0000
0001FFFE0000
0000FFFC0000
00007FF80000
00003FF00000
00001FE00000
000007C00000
ENDCHAR
STARTCHAR 0064
ENCODING 100
SWIDTH 980 0
DWIDTH 49 0
BBX 47 48 1 -8
BITMAP
000000000780
000000000FC0
000000001FE0
000000003FF0
040000007FF8
3F000000FFFC
7F000001FFFE
FF800003FFFE
FFC00007FFFE
FFC0000FFFFE
FFC0001FFFFC
FFE0003FFFF8
FFE0007FFFF0
FFE000FFFFE0
FFF001FFFFC0
FFF003FFFF80
FFF007FFFF00
FFF80FFFFE00
FFF81FFFFC00
FFF83FFFF800
FFFC7FFFF000
FFFCFFFFE000
FFFDFFFFC000
FFFFFFFF8000
FFFFFFFF0000
FFFFFFFE0000
FFFFFFFC0000
FFFFFFF80000
FFFFFFF00000
FFFFFFE00000
FFFFFFC00000
FFFFFF800000
FFFFFF000000
FFFFFFC00000
FFFFFFF80000
FFFFFFFF0000
FFFFFFFFE000
FFFFFFFFFC00
FFFFFFFFFF00
FFFFFFFFFF80
FFFFFFFFFFC0
FFFFFFFFFFE0
FFFFFFFFFFE0
FFFFFFFFFFE0
FFFFFFFFFFC0
7FFFFFFFFFC0
3FFFFFFFFF80
1FFFFFFFFE00
ENDCHAR
STARTCHAR 0065
ENCODING 101
SWIDTH 980 0
DWIDTH 49 0
BBX 47 48 1 -8
BITMAP
03C000000000
07E000000000
0FF000000000
1FF800000000
3FFC00000040
7FFE000001F0
FFFF000003FC
FFFF800003FC
FFFFC00007FE
FFFFE00007FE
7FFFF0000FFE
3FFFF8000FFE
1FFFFC000FFE
0FFFFE001FFE
07FFFF001FFE
03FFFF801FFE
01FFFFC03FFE
00FFFFE03FFE
007FFFF03FFE
003FFFF87FFE
001FFFFC7FFE
000FFFFE7FFE
0007FFFFFFFE
0003FFFFFFFE
0001FFFFFFFE
0000FFFFFFFE
00007FFFFFFE
00003FFFFFFE
00001FFFFFFE
00000FFFFFFE
000007FFFFFE
000003FFFFFE
000001FFFFFE
000007FFFFFE
00003FFFFFFE
0001FFFFFFFE
000FFFFFFFFE
007FFFFFFFFE
01FFFFFFFFFE
07FFFFFFFFFE
0FFFFFFFFFFE
0FFFFFFFFFFE
0FFFFFFFFFFE
0FFFFFFFFFFE
0FFFFFFFFFFE
07FFFFFFFFFC
03FFFFFFFFF8
01FFFFFFFFF0
ENDCHAR
STARTCHAR 0066
ENCODING 102
SWIDTH 980 0
DWIDTH 49 0
BBX 48 45 0 -7
BITMAP
00000F800000
00001FC00000
00003FE00000
00007FE00000
0000FFC00000
0001FFC00000
0003FFC00000
0007FF800000
000FFF800000
001FFF000000
003FFF000000
007FFE000000
00FFFE000000
01FFFC000000
03FFFC000000
07FFF8000000
0FFFF8000000
1FFFFFFFFFFE
3FFFFFFFFFFF
7FFFFFFFFFFF
7FFFFFFFFFFF
FFFFFFFFFFFF
FFFFFFFFFFFF
7FFFFFFFFFFF
7FFFFFFFFFFF
3FFFFFFFFFFF
1FFFFFFFFFFF
0FFFFFFFFFFE
07FFF8000000
03FFFC000000
01FFFC000000
00FFFE000000
007FFE000000
003FFF000000
001FFF000000
000FFF800000
0007FF800000
0003FFC00000
0001FFC00000
0000FFC00000
00007FE00000
00003FE00000
00001FC00000
00000FC00000
000002000000
ENDCHAR
STARTCHAR 0067
ENCODING 103
SWIDTH 980 0
DWIDTH 49 0
BBX 48 45 0 -7
BITMAP
000000F80000
000001FC0000
000003FE0000
000003FF0000
000003FF8000
000001FFC000
000001FFE000
000000FFF000
000000FFF800
000000FFFC00
0000007FFE00
0000003FFF00
0000003FFF80
0000001FFFC0
0000001FFFE0
0000001FFFF0
0000000FFFF8
3FFFFFFFFFFC
7FFFFFFFFFFE
FFFFFFFFFFFF
FFFFFFFFFFFF
FFFFFFFFFFFF
FFFFFFFFFFFF
FFFFFFFFFFFF
FFFFFFFFFFFF
FFFFFFFFFFFE
7FFFFFFFFFFC
3FFFFFFFFFF8
0000000FFFF0
0000001FFFE0
0000001FFFC0
0000003FFF80
0000003FFF00
0000007FFE00
0000007FFC00
000000FFF800
000000FFF000
000001FFE000
000001FFC000
000003FF8000
000003FF0000
000003FE0000
000003FC0000
000001F80000
000000200000
ENDCHAR
STARTCHAR 0068
ENCODING 104
SWIDTH 980 0
DWIDTH 49 0
BBX 47 51 1 -9
BITMAP
000007C00000
00001FE00000
00003FF80000
00007FFC0000
0000FFFE0000
0001FFFF0000
0003FFFF8000
0007FFFFC000
000FFFFFE000
001FFFFFF000
003FFFFFF800
007FFFFFFC00
00FFFFFFFE00
01FFFFFFFF00
03FFFFFFFF80
07FFFFFFFFC0
0FFFFFFFFFE0
1FFFFFFFFFF0
3FFFFFFFFFF8
7FFFFFFFFFFC
FFFFFFFFFFFC
FFFFFFFFFFFE
FFFE3FFCFFFE
FFF83FFC3FFE
FFE03FFC0FFE
FF803FFC03FE
7E003FFC00FC
30003FFC0018
00003FFC0000
00003FFC0000
00003FFC0000
00003FFC0000
00003FFC0000
00003FFC0000
00003FFC0000
00003FFC0000
00003FFC0000
00003FFC0000
00003FFC0000
00003FFC0000
00003FFC0000
00003FFC0000
00003FFC0000
00003FFC0000
00003FFC0000
00003FFC0000
00003FFC0000
00003FFC0000
00003FFC0000
00001FF80000
00000FE00000
ENDCHAR
STARTCHAR 0069
ENCODING 105
SWIDTH 980 0
DWIDTH 49 0
BBX 48 48 0 -9
BITMAP
1FFFFFFFFF80
3FFFFFFFFFC0
7FFFFFFFFFE0
7FFFFFFFFFF0
FFFFFFFFFFF0
FFFFFFFFFFF0
FFFFFFFFFFF0
FFFFFFFFFFE0
FFFFFFFFFFC0
FFFFFFFFFF80
FFFFFFFFFC00
FFFFFFFFF000
FFFFFFFF8000
FFFFFFFC0000
FFFFFFE00000
FFFFFF800000
FFFFFFC00000
FFFFFFE00000
FFFFFFF00000
FFFFFFF80000
FFFFFFFC0000
FFFFFFFE0000
FFFFFFFF0000
FFFFFFFF8000
FFFFFFFFC000
FFFEFFFFE000
FFFE7FFFF000
FFFE3FFFF800
FFFC1FFFFC00
FFFC0FFFFE00
FFFC07FFFF00
FFF803FFFF80
FFF801FFFFC0
FFF800FFFFE0
FFF0007FFFF0
FFF0003FFFF8
FFF0001FFFFC
FFE0000FFFFE
FFE00007FFFF
7FC00003FFFF
7FC00001FFFF
3F800000FFFF
1F0000007FFF
060000003FFE
000000001FFC
000000000FF8
0000000007F0
0000000003E0
ENDCHAR
STARTCHAR 006A
ENCODING 106
SWIDTH 980 0
DWIDTH 49 0
BBX 48 48 0 -8
BITMAP
00FFFFFFFFF8
03FFFFFFFFFE
03FFFFFFFFFF
07FFFFFFFFFF
07FFFFFFFFFF
07FFFFFFFFFF
07FFFFFFFFFF
07FFFFFFFFFF
01FFFFFFFFFF
00FFFFFFFFFF
003FFFFFFFFF
0007FFFFFFFF
0000FFFFFFFF
00001FFFFFFF
000003FFFFFF
000001FFFFFF
000003FFFFFF
000007FFFFFF
00000FFFFFFF
00001FFFFFFF
00003FFFFFFF
00007FFFFFFF
0000FFFFFFFF
0001FFFFFFFF
0003FFFFFFFF
0007FFFFFFFF
000FFFFF3FFF
001FFFFE3FFF
003FFFFC3FFF
007FFFF81FFF
00FFFFF01FFF
01FFFFE01FFF
03FFFFC00FFF
07FFFF800FFF
0FFFFF000FFF
1FFFFE0007FF
3FFFFC0007FF
7FFFF80003FF
7FFFF00003FF
FFFFE00003FF
FFFFC00001FF
7FFF800000FE
7FFF000000FC
3FFE00000000
1FFC00000000
0FF800000000
07F000000000
03E000000000
ENDCHAR
STARTCHAR 006B
ENCODING 107
SWIDTH 980 0
DWIDTH 49 0
BBX 48 42 0 -5
BITMAP
000000100000
000000100000
000000180000
0000001C0000
0000001E0000
0000001F0000
0000001F8000
0000001FC000
0000001FE000
0000001FF000
000003FFF800
0001FFFFFC00
000FFFFFFE00
003FFFFFFF00
00FFFFFFFF80
01FFFFFFFFC0
03FFFFFFFFE0
07FFFFFFFFF0
0FFFFFFFFFF8
0FFFFFFFFFFC
1FFFFFFFFFFE
1FFFFFFFFFFF
3FFFFFFFFFFE
3FFF807FFFF8
3FFC00FFFFF0
7FF000FFFFC0
7FC000FFFF00
7F8000FFFC00
7F0000FFF800
7E0000FFE000
FC0001FF8000
FC0001FE0000
F80001FC0000
F00001F00000
F00001C00000
E00003000000
E00002000000
C00000000000
400000000000
400000000000
400000000000
800000000000
ENDCHAR
STARTCHAR 006C
ENCODING 108
SWIDTH 1080 0
DWIDTH 54 0
BBX 53 46 0 -7
BITMAP
00000100000000
00000100000000
00000300000000
00000700000000
00000F00000000
00001F00000000
00003F00000000
00007F00000000
0000FF00000000
0001FF00000000
0003FF00000000
0007FFFE000000
000FFFFFF80000
001FFFFFFF0000
003FFFFFFFC000
007FFFFFFFF000
00FFFFFFFFF800
01FFFFFFFFFE00
03FFFFFFFFFF00
07FFFFFFFFFF00
0FFFFFFFFFFF80
1FFFFFFFFFFFC0
3FFFFFFFFFFFC0
FFFFFFFFFFFFE0
3FFFFFFFFFFFE0
1FFFFFF07FFFF0
07FFFFE003FFF0
01FFFFE000FFF0
007FFFE0003FF0
003FFFE0001FF8
000FFFF0000FF8
0003FFF00007F8
0001FFF00003F8
00007FF00001F8
00001FF00000F8
000007F00000F8
000003F8000078
000000F8000078
00000038000038
00000008000038
00000000000018
00000000000018
00000000000008
00000000000008
00000000000008
00000000000008
ENDCHAR
STARTCHAR 006D
ENCODING 109
SWIDTH 980 0
DWIDTH 49 0
BBX 43 51 3 -10
BITMAP
000FFFFC0000
000FFFFC0000
000FFFFC0000
000FFFFC0000
000FFFFC0000
000FFFFC0000
000FFFFC0000
000FFFFC0000
000FFFFC0000
000FFFFC0000
000FFFFC0000
000FFFFC0000
000FFFFC0000
000FFFFC0000
000FFFFC0000
000FFFFC0000
000FFFFC0000
000FFFFC0000
000FFFFC0000
000FFFFC0000
000FFFFC0000
000FFFFC0000
000FFFFC0000
000FFFFC0000
000FFFFC0000
000FFFFC0000
000FFFFC0000
000FFFFC0020
FFFFFFFFFFC0
3FFFFFFFFF80
1FFFFFFFFF00
0FFFFFFFFE00
0FFFFFFFFC00
07FFFFFFF800
03FFFFFFF800
01FFFFFFF000
00FFFFFFE000
007FFFFFC000
003FFFFF8000
001FFFFF0000
000FFFFE0000
0007FFFC0000
0003FFF80000
0001FFF00000
0000FFE00000
0000FFC00000
00007F800000
00003F800000
00001F000000
00000E000000
000004000000
ENDCHAR
STARTCHAR 006E
ENCODING 110
SWIDTH 980 0
DWIDTH 49 0
BBX 48 40 0 -4
BITMAP
000004000000
00000C000000
00001C000000
00003C000000
00007C000000
0000FC000000
0001FC000000
0003FC000000
0007FC000000
000FFC000000
001FFC000000
003FFC000000
007FFFFFFFFF
01FFFFFFFFFF
03FFFFFFFFFF
07FFFFFFFFFF
0FFFFFFFFFFF
1FFFFFFFFFFF
3FFFFFFFFFFF
7FFFFFFFFFFF
FFFFFFFFFFFF
3FFFFFFFFFFF
1FFFFFFFFFFF
0FFFFFFFFFFF
07FFFFFFFFFF
03FFFFFFFFFF
01FFFFFFFFFF
00FFFFFFFFFF
007FFC000000
001FFC000000
000FFC000000
0007FC000000
0003FC000000
0001FC000000
0000FC000000
00007C000000
00003C000000
00001C000000
00000C000000
000004000000
ENDCHAR
STARTCHAR 006F
ENCODING 111
SWIDTH 980 0
DWIDTH 49 0
BBX 48 40 0 -4
BITMAP
000000100000
000000100000
000000180000
0000001C0000
0000001F0000
0000001F8000
0000001FC000
0000001FE000
0000001FF000
0000001FF800
0000001FFC00
0000001FFE00
FFFFFFFFFF00
FFFFFFFFFF80
FFFFFFFFFFC0
FFFFFFFFFFE0
FFFFFFFFFFF8
FFFFFFFFFFFC
FFFFFFFFFFFE
FFFFFFFFFFFF
FFFFFFFFFFFF
FFFFFFFFFFFE
FFFFFFFFFFFC
FFFFFFFFFFF8
FFFFFFFFFFF0
FFFFFFFFFFC0
FFFFFFFFFF80
FFFFFFFFFF00
0000001FFE00
0000001FFC00
0000001FF800
0000001FF000
0000001FE000
0000001FC000
0000001F8000
0000001F0000
0000001E0000
0000001C0000
000000100000
000000100000
ENDCHAR
STARTCHAR 0070
ENCODING 112
SWIDTH 980 0
DWIDTH 49 0
BBX 43 51 3 -10
BITMAP
000004000000
00000E000000
00001F000000
00003F800000
00007FC00000
0000FFE00000
0001FFF00000
0003FFF80000
0007FFFC0000
000FFFFE0000
001FFFFF0000
003FFFFF0000
003FFFFF8000
007FFFFFC000
00FFFFFFE000
01FFFFFFF000
03FFFFFFF800
07FFFFFFFC00
0FFFFFFFFE00
1FFFFFFFFF00
3FFFFFFFFF80
7FFFFFFFFFC0
FFFFFFFFFFE0
0007FFFC0000
0007FFFC0000
0007FFFC0000
0007FFFC0000
0007FFFC0000
0007FFFC0000
0007FFFC0000
0007FFFC0000
0007FFFC0000
0007FFFC0000
0007FFFC0000
0007FFFC0000
0007FFFC0000
0007FFFC0000
0007FFFC0000
0007FFFC0000
0007FFFC0000
0007FFFC0000
0007FFFC0000
0007FFFC0000
0007FFFC0000
0007FFFC0000
0007FFFC0000
0007FFFC0000
0007FFFC0000
0007FFFC0000
0007FFFC0000
0007FFFC0000
ENDCHAR
STARTCHAR 0071
ENCODING 113
SWIDTH 980 0
DWIDTH 49 0
BBX 43 51 3 -10
BITMAP
000000040000
0000000E0000
0000000E0000
0000001F0000
0000001F0000
0000003F8000
0000003FC000
0000007FC000
000000FFE000
000000FFE000
000001FFF000
000001FFF000
000003FFF800
FF0003FFFC00
FF0007FFFC00
FF000FFFFE00
FF000FFFFE00
FF001FFFFF00
FF001FFFFF00
FF003FFFFF80
FF007FFFFFC0
FF007FFFFFC0
FF00FFFFFFE0
FF00007F8000
FF00007F8000
FF00007F8000
FF00007F8000
FF00007F8000
FF00007F8000
FF00007F8000
FF00007F8000
FF00007F8000
FF00007F8000
FF00007F8000
FF00007F8000
FF00007F8000
FF00007F8000
FF80007F8000
FF8000FF8000
7FC001FF0000
7FE003FF0000
7FF007FF0000
3FFE3FFE0000
1FFFFFFC0000
1FFFFFFC0000
0FFFFFF80000
07FFFFF00000
01FFFFE00000
00FFFF800000
003FFE000000
0003E0000000
ENDCHAR
STARTCHAR 0072
ENCODING 114
SWIDTH 980 0
DWIDTH 49 0
BBX 48 41 0 -5
BITMAP
000006000000
00001E000000
00003E000000
0000FE000000
0003FE000000
000FFE000000
001FFE000000
007FFE000000
01FFFE000000
03FFFFFFF800
0FFFFFFFFF00
3FFFFFFFFF80
FFFFFFFFFFE0
3FFFFFFFFFF0
0FFFFFFFFFF8
07FFFFFFFFF8
01FFFFFFFFFC
007FFE000FFE
001FFE0003FE
000FFE0001FF
0003FE0000FF
0000FE0000FF
00003E0000FF
00001E00007F
00000600007F
00000000007F
00000000007F
0000000000FF
0000000000FF
0000000001FF
0000000003FE
0000000007FE
000000001FFC
0007FFFFFFFC
0007FFFFFFF8
0007FFFFFFF0
0007FFFFFFE0
0007FFFFFFC0
0007FFFFFF80
0007FFFFFE00
0007FFFFE000
ENDCHAR
STARTCHAR 0073
ENCODING 115
SWIDTH 980 0
DWIDTH 49 0
BBX 48 37 0 -3
BITMAP
0000FFFF8000
0007FFFFF000
003FFFFFFC00
00FFFFFFFF00
01FFFFFFFFC0
03FFFFFFFFE0
07FFFFFFFFF0
0FFFFFFFFFF8
1FFFFFFFFFFC
3FFFFFFFFFFE
3FFFFFFFFFFE
7FFFFFFFFFFF
7FFFFFFFFFFF
FFFFFFFFFFFF
FFFFFFFFFFFF
FFFFFFFFFFFF
FFFFFFFFFFFF
FFFFFFFFFFFF
7FFFFFFFFFFF
7FFFFFFFFFFF
7FFFFFFFFFFE
3FFFFFFFFFFE
1FFFFFFFFFFC
1FFFFFFFFFF8
0FFFFFFFFFF0
07FFFFFFFFE0
03FFFFFFFFC0
00FFFFFFFF00
003FFFFFFC00
000FFFFFF000
0001FFFF8000
00007FC00000
00007E000000
00007E000000
0000F8000000
0001F0000000
000780000000
ENDCHAR
STARTCHAR 0074
ENCODING 116
SWIDTH 980 0
DWIDTH 49 0
BBX 48 40 0 -4
BITMAP
3FFFFFFFFFFE
7FFFFFFFFFFF
FFFFFFFFFFFF
FFFFFFFFFFFF
FFFFFFFFFFFF
FFFFFFFFFFFF
FFFFFFFFFFFF
FFFFFFFFFFFF
FFFFFFFFFFFF
FFFFFFFFFFFF
FFFFFFFFFFFF
FFFFFFFFFFFF
FFFFFFFFFFFF
FFFFFFFFFFFF
FFFFFFFFFFFF
FFFFFFFFFFFF
FFFFFFFFFFFF
FFFFFFFFFFFF
FFFFFFFFFFFF
FFFFFFFFFFFF
FFFFFFFFFFFF
FFFFFFFFFFFF
FFFFFFFFFFFF
FFFFFFFFFFFF
FFFFFFFFFFFF
FFFFFFFFFFFF
FFFFFFFFFFFF
FFFFFFFFFFFF
FFFFFFFFFFFF
7FFFFFFFFFFF
3FFFFFFFFFFE
00000FE00000
00000FC00000
00000F800000
00001F000000
00001C000000
000038000000
000030000000
000060000000
0000C0000000
ENDCHAR
STARTCHAR 0075
ENCODING 117
SWIDTH 980 0
DWIDTH 49 0
BBX 48 38 0 -3
BITMAP
00000FF00000
0001FFFFC000
000FFFFFF800
003FFFFFFE00
00FFFFFFFF80
01FFFFFFFFC0
07FFFFFFFFE0
0FFFFFFFFFF0
1FFFFFFFFFF8
3FFFFFFFFFFC
3FFFFFFFFFFE
7FFFFFFFFFFE
7FFFFFFFFFFF
FFFFFFFFFFFF
FFFFFFFFFFFF
FFFFFFFFFFFF
FFFFFFFFFFFF
FFFFFFFFFFFF
FFFFFFFFFFFF
7FFFFFFFFFFF
7FFFFFFFFFFF
7FFFFFFFFFFE
3FFFFFFFFFFE
1FFFFFFFFFFC
1FFFFFFFFFF8
0FFFFFFFFFF0
03FFFFFFFFE0
01FFFFFFFFC0
007FFFFFFF80
001FFFFFFE00
0007FFFFF000
0000FFFF8000
000000FE0000
0000007E0000
0000003F0000
0000001F8000
00000007C000
000000007000
ENDCHAR
STARTCHAR 0076
ENCODING 118
SWIDTH 980 0
DWIDTH 49 0
BBX 48 41 0 -5
BITMAP
3FFFFFFFFFFE
7FFFFFFFFFFF
FFFFFFFFFFFF
FFFFFFFFFFFF
FFFFFFFFFFFF
FFFFFFFFFFFF
FFFFFFFFFFFF
FFFFFFFFFFFF
FFFFFFFFFFFF
FFFFFFFFFFFF
FFFFFFFFFFFF
FFFFFFFFFFFF
FFFFFFFFFFFF
FFFFFFFFFFFF
FFFFFFFFFFFF
FFFFFFFFFFFF
FFFFFFFFFFFF
FFFFFFFFFFFF
FFFFFFFFFFFF
FFFFFFFFFFFF
FFFFFFFFFFFF
FFFFFFFFFFFF
FFFFFFFFFFFF
FFFFFFFFFFFF
FFFFFFFFFFFF
FFFFFFFFFFFF
FFFFFFFFFFFF
FFFFFFFFFFFF
FFFFFFFFFFFF
7FFFFFFFFFFF
3FFFFFFFFFFE
000003F00000
000001F80000
000000F80000
0000007C0000
0000003C0000
0000001C0000
000000060000
000000020000
000000010000
000000008000
ENDCHAR
STARTCHAR 0077
ENCODING 119
SWIDTH 980 0
DWIDTH 49 0
BBX 48 48 0 -8
BITMAP
000001C00000
000007F00000
00000FF00000
00000FF80000
00000FF80000
00000FF80000
00F80FF80F00
01FC7FFC3FC0
03FFFFFF7FC0
03FFFFFFFFE0
03FFFFFFFFE0
03FFFFFFFFE0
03FFFFFFFFC0
01FFFFFFFFC0
00FFFFFFFF80
00FFFFFFFF00
00FFFF7FFE00
01FFF80FFE00
01FFE003FF00
0FFFC001FFF0
3FFFC001FFFE
7FFF8000FFFF
7FFF8000FFFF
FFFF8000FFFF
FFFF8000FFFF
7FFF8000FFFF
7FFF8000FFFF
3FFF8001FFFE
1FFFC001FFF8
00FFE003FE00
00FFF007FE00
00FFFC1FFC00
007FFFFFFE00
00FFFFFFFF00
01FFFFFFFF80
01FFFFFFFFC0
03FFFFFFFFE0
03FFFFFFFFE0
03FFFFFEFFE0
03FF3FF87FC0
01FE0FF83FC0
00FC0FF81F80
00200FF80200
00000FF80000
00000FF80000
00000FF80000
000007F00000
000003E00000
ENDCHAR
STARTCHAR 0078
ENCODING 120
SWIDTH 980 0
DWIDTH 49 0
BBX 48 40 0 -4
BITMAP
001C00000000
0F3C00000000
0F3C00000000
0FFC00000000
07FFE0000000
07FFE0000000
7F9FE0000000
FF0F80000000
7E07C01E0000
3E07C03F0780
0E07E07F0FC0
1F07F07F0FC0
7F9FF03FFFC0
7FFFC07FFFC0
7FFF1CFFFF80
13FF3FFFFF80
03FF7FFFFF80
03CF7FFFFFDE
03C03FFFFFFF
00003FF81FFF
00000FF00FFF
00000FE007FF
00000FE007FF
00000FE007FC
00003FE007E0
00007FE007E0
0000FFE007E0
0000FFF00FF8
0000FFF81FFC
00007FFFFFFE
000033FFFFFE
000001FFFFFE
000001FFFE7C
000001FFFC38
000003FFFC00
000003F8FE00
000003F8FE00
000001F0FE00
000000E07C00
000000003C00
ENDCHAR
STARTCHAR 0079
ENCODING 121
SWIDTH 980 0
DWIDTH 49 0
BBX 48 42 0 -4
BITMAP
0000FF000000
0007FFC00FC0
000FFFF03FF0
001FFFF83FFC
003FFC047FF0
007FF0007F00
00FFE000FF00
01FFE000FF87
01FFE000FFFE
03FFF000FFFE
03FFF801FFFC
1FFFFC01FFF8
7FC3FE03FFF0
FFC0FF07FFC0
7F807F87FF80
7F803FCFFF80
3F801FFFFFC0
0F8007FFF000
070003FFC000
000001FF8000
000003FF0000
000007FF8000
00000FFFC000
00003FFFE000
00007FFFF000
0000FFEFF800
0001FF87FC00
0003FF03FE00
000FFE03FF00
001FFC01FF80
003FF800FFC0
007FF0007FE0
01FFE0003FF0
03FFC0001FF8
07FF80000FFC
0FFF000007FE
0FFE000007FF
1FFC000003FF
0FF8000001FE
0FF0000000FC
07E000000078
018000000030
ENDCHAR
STARTCHAR 007A
ENCODING 122
SWIDTH 980 0
DWIDTH 49 0
BBX 48 48 0 -8
BITMAP
000000040000
0000000C0000
000000080000
000000180000
000000380000
000000780000
000000F80000
000001F00000
000003F00000
000003F00000
000003F00000
000003E00000
000007E00000
000007E00000
000007E00000
000007E00000
000007C00000
00000FC00000
00000FC00000
00000FC0000F
00000F8001FC
01FC1F801FF8
07FE1F83FFF0
1FFF1FBFFFE0
3FFF9FFFFFC0
7FBFFFFFFF80
7E0FFFFFFC00
7C0FFFFFC000
FC0FFFF80000
FC1FFF800000
FFFFFE000000
7FFF3F000000
3FFE7F800000
3FFCFFC00000
0FF1FFE00000
0003FFE00000
0003F3E00000
0007E1E00000
0007E1E00000
0007C1E00000
0007C3E00000
0007C3E00000
0007EFE00000
0007FFC00000
0003FF800000
0001FF800000
0001FF000000
00007C000000
ENDCHAR
STARTCHAR 007B
ENCODING 123
SWIDTH 980 0
DWIDTH 49 0
BBX 48 46 0 -7
BITMAP
00000000FF80
00000000FE00
000000007E00
000000007F00
000000007F80
000000003FC0
0000000037E0
0000000023F0
0000000021F0
0000000000F8
00000000007C
00000000007C
00000000003E
00000000003E
00000000001E
00000000001F
00000000001F
00000000000F
00000000000F
00000000000F
00000000000F
00000000000F
F8000000000F
F8000000000F
78000000000F
78000000000F
78000000000F
78000000001F
7C000000001E
3C000000001E
3E000000003E
3E000000003C
1F000000007C
1F80000000F8
0F80000001F8
07C0000001F0
07E0000007E0
03F000000FE0
01FC00001FC0
00FF00007F80
007FE003FE00
001FFFFFFC00
000FFFFFF000
0003FFFFC000
00007FFF0000
000003E00000
ENDCHAR
STARTCHAR 007C
ENCODING 124
SWIDTH 980 0
DWIDTH 49 0
BBX 48 46 0 -7
BITMAP
00FF80000000
007F00000000
003F00000000
007F00000000
00FE00000000
01FE00000000
03F600000000
07E400000000
0FC400000000
0F8000000000
1F0000000000
1F0000000000
3E0000000000
3C0000000000
7C0000000000
7C0000000000
780000000000
780000000000
780000000000
F80000000000
F80000000000
F80000000000
F8000000000F
F8000000000F
F8000000000F
78000000000F
78000000000F
78000000001F
7C000000001E
3C000000001E
3E000000003E
3E000000003C
1F000000007C
1F00000000F8
0F80000000F8
0FC0000001F0
07E0000003E0
03F0000007E0
01FC00001FC0
00FF00007F80
007FC001FF00
001FFF7FFC00
000FFFFFF800
0003FFFFE000
0000FFFF0000
00000FF00000
ENDCHAR
STARTCHAR 007D
ENCODING 125
SWIDTH 500 0
DWIDTH 25 0
BBX 0 0 0 0
BITMAP
ENDCHAR
STARTCHAR 007E
ENCODING 126
SWIDTH 500 0
DWIDTH 25 0
BBX 0 0 0 0
BITMAP
ENDCHAR
STARTCHAR 00A0
ENCODING 160
SWIDTH 240 0
DWIDTH 12 0
BBX 0 0 0 0
BITMAP
ENDCHAR
STARTCHAR 00A1
ENCODING 161
SWIDTH 320 0
DWIDTH 16 0
BBX 0 0 0 0
BITMAP
ENDCHAR
STARTCHAR 00A2
ENCODING 162
SWIDTH 560 0
DWIDTH 28 0
BBX 0 0 0 0
BITMAP
ENDCHAR
STARTCHAR 00A3
ENCODING 163
SWIDTH 500 0
DWIDTH 25 0
BBX 0 0 0 0
BITMAP
ENDCHAR
STARTCHAR 00A4
ENCODING 164
SWIDTH 500 0
DWIDTH 25 0
BBX 0 0 0 0
BITMAP
ENDCHAR
STARTCHAR 00A5
ENCODING 165
SWIDTH 620 0
DWIDTH 31 0
BBX 0 0 0 0
BITMAP
ENDCHAR
STARTCHAR 00A6
ENCODING 166
SWIDTH 500 0
DWIDTH 25 0
BBX 0 0 0 0
BITMAP
ENDCHAR
STARTCHAR 00A7
ENCODING 167
SWIDTH 500 0
DWIDTH 25 0
BBX 0 0 0 0
BITMAP
ENDCHAR
STARTCHAR 00A8
ENCODING 168
SWIDTH 500 0
DWIDTH 25 0
BBX 0 0 0 0
BITMAP
ENDCHAR
STARTCHAR 00A9
ENCODING 169
SWIDTH 820 0
DWIDTH 41 0
BBX 0 0 0 0
BITMAP
ENDCHAR
STARTCHAR 00AA
ENCODING 170
SWIDTH 320 0
DWIDTH 16 0
BBX 0 0 0 0
BITMAP
ENDCHAR
STARTCHAR 00AB
ENCODING 171
SWIDTH 460 0
DWIDTH 23 0
BBX 0 0 0 0
BITMAP
ENDCHAR
STARTCHAR 00AC
ENCODING 172
SWIDTH 500 0
DWIDTH 25 0
BBX 0 0 0 0
BITMAP
ENDCHAR
STARTCHAR 00AD
ENCODING 173
SWIDTH 980 0
DWIDTH 49 0
BBX 48 48 0 -8
BITMAP
00000FF80000
0000FFFF8000
0003FFFFE000
000FF00FF800
003F8000FC00
007E00003F00
00F800000F80
01F0000007C0
03C0000003E0
07E0000081F0
07700001C0F0
0F380003C078
1E1C0007C03C
1C0E000FC03C
3C07001FC01C
3803803FC00E
3801E07FC00E
700000FFC00F
7001FFFFC007
7001FFFFC007
7001FFFFC007
F001FFFFC007
E001FFFFC007
E001FFFFC007
E001FFFFC007
E001FFFFC007
F001FFFFC007
7001FFFFC007
7001FFFFC007
7001FFFFC007
700000FFC00F
3800007FC00E
3800003FC00E
3C00001FD01E
1C00000FD01C
1E000007D83C
0F000003DC78
0F000001CEF0
0780000087F0
03C0000003E0
01E0000007C0
00F800000F80
007C00003F00
003F8000FE00
000FF007F800
0007FFFFE000
0000FFFF8000
00001FFC0000
ENDCHAR
STARTCHAR 00AE
ENCODING 174
SWIDTH 820 0
DWIDTH 41 0
BBX 0 0 0 0
BITMAP
ENDCHAR
STARTCHAR 00AF
ENCODING 175
SWIDTH 320 0
DWIDTH 16 0
BBX 0 0 0 0
BITMAP
ENDCHAR
STARTCHAR 00B0
ENCODING 176
SWIDTH 320 0
DWIDTH 16 0
BBX 0 0 0 0
BITMAP
ENDCHAR
STARTCHAR 00B1
ENCODING 177
SWIDTH 500 0
DWIDTH 25 0
BBX 0 0 0 0
BITMAP
ENDCHAR
STARTCHAR 00B2
ENCODING 178
SWIDTH 500 0
DWIDTH 25 0
BBX 0 0 0 0
BITMAP
ENDCHAR
STARTCHAR 00B3
ENCODING 179
SWIDTH 500 0
DWIDTH 25 0
BBX 0 0 0 0
BITMAP
ENDCHAR
STARTCHAR 00B4
ENCODING 180
SWIDTH 500 0
DWIDTH 25 0
BBX 0 0 0 0
BITMAP
ENDCHAR
STARTCHAR 00B5
ENCODING 181
SWIDTH 580 0
DWIDTH 29 0
BBX 0 0 0 0
BITMAP
ENDCHAR
STARTCHAR 00B6
ENCODING 182
SWIDTH 500 0
DWIDTH 25 0
BBX 0 0 0 0
BITMAP
ENDCHAR
STARTCHAR 00B7
ENCODING 183
SWIDTH 240 0
DWIDTH 12 0
BBX 0 0 0 0
BITMAP
ENDCHAR
STARTCHAR 00B8
ENCODING 184
SWIDTH 500 0
DWIDTH 25 0
BBX 0 0 0 0
BITMAP
ENDCHAR
STARTCHAR 00B9
ENCODING 185
SWIDTH 500 0
DWIDTH 25 0
BBX 0 0 0 0
BITMAP
ENDCHAR
STARTCHAR 00BA
ENCODING 186
SWIDTH 360 0
DWIDTH 18 0
BBX 0 0 0 0
BITMAP
ENDCHAR
STARTCHAR 00BB
ENCODING 187
SWIDTH 460 0
DWIDTH 23 0
BBX 0 0 0 0
BITMAP
ENDCHAR
STARTCHAR 00BC
ENCODING 188
SWIDTH 840 0
DWIDTH 42 0
BBX 0 0 0 0
BITMAP
ENDCHAR
STARTCHAR 00BD
ENCODING 189
SWIDTH 960 0
DWIDTH 48 0
BBX 0 0 0 0
BITMAP
ENDCHAR
STARTCHAR 00BE
ENCODING 190
SWIDTH 840 0
DWIDTH 42 0
BBX 0 0 0 0
BITMAP
ENDCHAR
STARTCHAR 00BF
ENCODING 191
SWIDTH 360 0
DWIDTH 18 0
BBX 0 0 0 0
BITMAP
ENDCHAR
STARTCHAR 00C0
ENCODING 192
SWIDTH 760 0
DWIDTH 38 0
BBX 0 0 0 0
BITMAP
ENDCHAR
STARTCHAR 00C1
ENCODING 193
SWIDTH 760 0
DWIDTH 38 0
BBX 0 0 0 0
BITMAP
ENDCHAR
STARTCHAR 00C2
ENCODING 194
SWIDTH 760 0
DWIDTH 38 0
BBX 0 0 0 0
BITMAP
ENDCHAR
STARTCHAR 00C3
ENCODING 195
SWIDTH 760 0
DWIDTH 38 0
BBX 0 0 0 0
BITMAP
ENDCHAR
STARTCHAR 00C4
ENCODING 196
SWIDTH 760 0
DWIDTH 38 0
BBX 0 0 0 0
BITMAP
ENDCHAR
STARTCHAR 00C5
ENCODING 197
SWIDTH 760 0
DWIDTH 38 0
BBX 0 0 0 0
BITMAP
ENDCHAR
STARTCHAR 00C6
ENCODING 198
SWIDTH 1040 0
DWIDTH 52 0
BBX 0 0 0 0
BITMAP
ENDCHAR
STARTCHAR 00C7
ENCODING 199
SWIDTH 680 0
DWIDTH 34 0
BBX 0 0 0 0
BITMAP
ENDCHAR
STARTCHAR 00C8
ENCODING 200
SWIDTH 560 0
DWIDTH 28 0
BBX 0 0 0 0
BITMAP
ENDCHAR
STARTCHAR 00C9
ENCODING 201
SWIDTH 560 0
DWIDTH 28 0
BBX 0 0 0 0
BITMAP
ENDCHAR
STARTCHAR 00CA
ENCODING 202
SWIDTH 560 0
DWIDTH 28 0
BBX 0 0 0 0
BITMAP
ENDCHAR
STARTCHAR 00CB
ENCODING 203
SWIDTH 560 0
DWIDTH 28 0
BBX 0 0 0 0
BITMAP
ENDCHAR
STARTCHAR 00CC
ENCODING 204
SWIDTH 320 0
DWIDTH 16 0
BBX 0 0 0 0
BITMAP
ENDCHAR
STARTCHAR 00CD
ENCODING 205
SWIDTH 320 0
DWIDTH 16 0
BBX 0 0 0 0
BITMAP
ENDCHAR
STARTCHAR 00CE
ENCODING 206
SWIDTH 320 0
DWIDTH 16 0
BBX 0 0 0 0
BITMAP
ENDCHAR
STARTCHAR 00CF
ENCODING 207
SWIDTH 320 0
DWIDTH 16 0
BBX 0 0 0 0
BITMAP
ENDCHAR
STARTCHAR 00D0
ENCODING 208
SWIDTH 740 0
DWIDTH 37 0
BBX 0 0 0 0
BITMAP
ENDCHAR
STARTCHAR 00D1
ENCODING 209
SWIDTH 760 0
DWIDTH 38 0
BBX 0 0 0 0
BITMAP
ENDCHAR
STARTCHAR 00D2
ENCODING 210
SWIDTH 780 0
DWIDTH 39 0
BBX 0 0 0 0
BITMAP
ENDCHAR
STARTCHAR 00D3
ENCODING 211
SWIDTH 780 0
DWIDTH 39 0
BBX 0 0 0 0
BITMAP
ENDCHAR
STARTCHAR 00D4
ENCODING 212
SWIDTH 780 0
DWIDTH 39 0
BBX 0 0 0 0
BITMAP
ENDCHAR
STARTCHAR 00D5
ENCODING 213
SWIDTH 780 0
DWIDTH 39 0
BBX 0 0 0 0
BITMAP
ENDCHAR
STARTCHAR 00D6
ENCODING 214
SWIDTH 780 0
DWIDTH 39 0
BBX 0 0 0 0
BITMAP
ENDCHAR
STARTCHAR 00D7
ENCODING 215
SWIDTH 500 0
DWIDTH 25 0
BBX 0 0 0 0
BITMAP
ENDCHAR
STARTCHAR 00D8
ENCODING 216
SWIDTH 780 0
DWIDTH 39 0
BBX 0 0 0 0
BITMAP
ENDCHAR
STARTCHAR 00D9
ENCODING 217
SWIDTH 740 0
DWIDTH 37 0
BBX 0 0 0 0
BITMAP
ENDCHAR
STARTCHAR 00DA
ENCODING 218
SWIDTH 740 0
DWIDTH 37 0
BBX 0 0 0 0
BITMAP
ENDCHAR
STARTCHAR 00DB
ENCODING 219
SWIDTH 740 0
DWIDTH 37 0
BBX 0 0 0 0
BITMAP
ENDCHAR
STARTCHAR 00DC
ENCODING 220
SWIDTH 740 0
DWIDTH 37 0
BBX 0 0 0 0
BITMAP
ENDCHAR
STARTCHAR 00DD
ENCODING 221
SWIDTH 600 0
DWIDTH 30 0
BBX 0 0 0 0
BITMAP
ENDCHAR
STARTCHAR 00DE
ENCODING 222
SWIDTH 540 0
DWIDTH 27 0
BBX 0 0 0 0
BITMAP
ENDCHAR
STARTCHAR 00DF
ENCODING 223
SWIDTH 620 0
DWIDTH 31 0
BBX 0 0 0 0
BITMAP
ENDCHAR
STARTCHAR 00E0
ENCODING 224
SWIDTH 460 0
DWIDTH 23 0
BBX 0 0 0 0
BITMAP
ENDCHAR
STARTCHAR 00E1
ENCODING 225
SWIDTH 460 0
DWIDTH 23 0
BBX 0 0 0 0
BITMAP
ENDCHAR
STARTCHAR 00E2
ENCODING 226
SWIDTH 460 0
DWIDTH 23 0
BBX 0 0 0 0
BITMAP
ENDCHAR
STARTCHAR 00E3
ENCODING 227
SWIDTH 460 0
DWIDTH 23 0
BBX 0 0 0 0
BITMAP
ENDCHAR
STARTCHAR 00E4
ENCODING 228
SWIDTH 460 0
DWIDTH 23 0
BBX 0 0 0 0
BITMAP
ENDCHAR
STARTCHAR 00E5
ENCODING 229
SWIDTH 460 0
DWIDTH 23 0
BBX 0 0 0 0
BITMAP
ENDCHAR
STARTCHAR 00E6
ENCODING 230
SWIDTH 720 0
DWIDTH 36 0
BBX 0 0 0 0
BITMAP
ENDCHAR
STARTCHAR 00E7
ENCODING 231
SWIDTH 440 0
DWIDTH 22 0
BBX 0 0 0 0
BITMAP
ENDCHAR
STARTCHAR 00E8
ENCODING 232
SWIDTH 440 0
DWIDTH 22 0
BBX 0 0 0 0
BITMAP
ENDCHAR
STARTCHAR 00E9
ENCODING 233
SWIDTH 440 0
DWIDTH 22 0
BBX 0 0 0 0
BITMAP
ENDCHAR
STARTCHAR 00EA
ENCODING 234
SWIDTH 440 0
DWIDTH 22 0
BBX 0 0 0 0
BITMAP
ENDCHAR
STARTCHAR 00EB
ENCODING 235
SWIDTH 440 0
DWIDTH 22 0
BBX 0 0 0 0
BITMAP
ENDCHAR
STARTCHAR 00EC
ENCODING 236
SWIDTH 260 0
DWIDTH 13 0
BBX 0 0 0 0
BITMAP
ENDCHAR
STARTCHAR 00ED
ENCODING 237
SWIDTH 260 0
DWIDTH 13 0
BBX 0 0 0 0
BITMAP
ENDCHAR
STARTCHAR 00EE
ENCODING 238
SWIDTH 260 0
DWIDTH 13 0
BBX 0 0 0 0
BITMAP
ENDCHAR
STARTCHAR 00EF
ENCODING 239
SWIDTH 260 0
DWIDTH 13 0
BBX 0 0 0 0
BITMAP
ENDCHAR
STARTCHAR 00F0
ENCODING 240
SWIDTH 560 0
DWIDTH 28 0
BBX 0 0 0 0
BITMAP
ENDCHAR
STARTCHAR 00F1
ENCODING 241
SWIDTH 540 0
DWIDTH 27 0
BBX 0 0 0 0
BITMAP
ENDCHAR
STARTCHAR 00F2
ENCODING 242
SWIDTH 500 0
DWIDTH 25 0
BBX 0 0 0 0
BITMAP
ENDCHAR
STARTCHAR 00F3
ENCODING 243
SWIDTH 500 0
DWIDTH 25 0
BBX 0 0 0 0
BITMAP
ENDCHAR
STARTCHAR 00F4
ENCODING 244
SWIDTH 500 0
DWIDTH 25 0
BBX 0 0 0 0
BITMAP
ENDCHAR
STARTCHAR 00F5
ENCODING 245
SWIDTH 500 0
DWIDTH 25 0
BBX 0 0 0 0
BITMAP
ENDCHAR
STARTCHAR 00F6
ENCODING 246
SWIDTH 500 0
DWIDTH 25 0
BBX 0 0 0 0
BITMAP
ENDCHAR
STARTCHAR 00F7
ENCODING 247
SWIDTH 500 0
DWIDTH 25 0
BBX 0 0 0 0
BITMAP
ENDCHAR
STARTCHAR 00F8
ENCODING 248
SWIDTH 500 0
DWIDTH 25 0
BBX 0 0 0 0
BITMAP
ENDCHAR
STARTCHAR 00F9
ENCODING 249
SWIDTH 520 0
DWIDTH 26 0
BBX 0 0 0 0
BITMAP
ENDCHAR
STARTCHAR 00FA
ENCODING 250
SWIDTH 520 0
DWIDTH 26 0
BBX 0 0 0 0
BITMAP
ENDCHAR
STARTCHAR 00FB
ENCODING 251
SWIDTH 520 0
DWIDTH 26 0
BBX 0 0 0 0
BITMAP
ENDCHAR
STARTCHAR 00FC
ENCODING 252
SWIDTH 520 0
DWIDTH 26 0
BBX 0 0 0 0
BITMAP
ENDCHAR
STARTCHAR 00FD
ENCODING 253
SWIDTH 420 0
DWIDTH 21 0
BBX 0 0 0 0
BITMAP
ENDCHAR
STARTCHAR 00FE
ENCODING 254
SWIDTH 500 0
DWIDTH 25 0
BBX 0 0 0 0
BITMAP
ENDCHAR
STARTCHAR 00FF
ENCODING 255
SWIDTH 420 0
DWIDTH 21 0
BBX 0 0 0 0
BITMAP
ENDCHAR
STARTCHAR 0131
ENCODING 305
SWIDTH 260 0
DWIDTH 13 0
BBX 0 0 0 0
BITMAP
ENDCHAR
STARTCHAR 02C6
ENCODING 710
SWIDTH 500 0
DWIDTH 25 0
BBX 0 0 0 0
BITMAP
ENDCHAR
STARTCHAR 02C7
ENCODING 711
SWIDTH 500 0
DWIDTH 25 0
BBX 0 0 0 0
BITMAP
ENDCHAR
STARTCHAR 02C9
ENCODING 713
SWIDTH 500 0
DWIDTH 25 0
BBX 0 0 0 0
BITMAP
ENDCHAR
STARTCHAR 02D8
ENCODING 728
SWIDTH 500 0
DWIDTH 25 0
BBX 0 0 0 0
BITMAP
ENDCHAR
STARTCHAR 02D9
ENCODING 729
SWIDTH 500 0
DWIDTH 25 0
BBX 0 0 0 0
BITMAP
ENDCHAR
STARTCHAR 02DA
ENCODING 730
SWIDTH 500 0
DWIDTH 25 0
BBX 0 0 0 0
BITMAP
ENDCHAR
STARTCHAR 02DB
ENCODING 731
SWIDTH 500 0
DWIDTH 25 0
BBX 0 0 0 0
BITMAP
ENDCHAR
STARTCHAR 02DC
ENCODING 732
SWIDTH 500 0
DWIDTH 25 0
BBX 0 0 0 0
BITMAP
ENDCHAR
STARTCHAR 02DD
ENCODING 733
SWIDTH 500 0
DWIDTH 25 0
BBX 0 0 0 0
BITMAP
ENDCHAR
STARTCHAR 037E
ENCODING 894
SWIDTH 980 0
DWIDTH 49 0
BBX 49 48 0 -8
BITMAP
000001C0000000
000001C0000000
000001C0000000
000001C0000000
000001C0000000
000001C0000000
000001C0000000
000001C0000000
000001C0000000
000001C0000000
000001C0000000
000001C0000000
000001C0000000
000001C0000000
000001C0000000
000001C0000000
000001C0000000
000001C0000000
000001C0000000
000001C0000000
000001C0000000
000001C0000000
FFFFFFFFFFFF80
FFFFFFFFFFFF80
FFFFFFFFFFFF80
FFFFFFFFFFFF80
000001C0000000
000001C0000000
000001C0000000
000001C0000000
000001C0000000
000001C0000000
000001C0000000
000001C0000000
000001C0000000
000001C0000000
000001C0000000
000001C0000000
000001C0000000
000001C0000000
000001C0000000
000001C0000000
000001C0000000
000001C0000000
000001C0000000
000001C0000000
000001C0000000
000001C0000000
ENDCHAR
STARTCHAR 2013
ENCODING 8211
SWIDTH 540 0
DWIDTH 27 0
BBX 0 0 0 0
BITMAP
ENDCHAR
STARTCHAR 2014
ENCODING 8212
SWIDTH 1000 0
DWIDTH 50 0
BBX 0 0 0 0
BITMAP
ENDCHAR
STARTCHAR 2018
ENCODING 8216
SWIDTH 280 0
DWIDTH 14 0
BBX 0 0 0 0
BITMAP
ENDCHAR
STARTCHAR 2019
ENCODING 8217
SWIDTH 280 0
DWIDTH 14 0
BBX 0 0 0 0
BITMAP
ENDCHAR
STARTCHAR 201A
ENCODING 8218
SWIDTH 280 0
DWIDTH 14 0
BBX 0 0 0 0
BITMAP
ENDCHAR
STARTCHAR 201C
ENCODING 8220
SWIDTH 440 0
DWIDTH 22 0
BBX 0 0 0 0
BITMAP
ENDCHAR
STARTCHAR 201D
ENCODING 8221
SWIDTH 440 0
DWIDTH 22 0
BBX 0 0 0 0
BITMAP
ENDCHAR
STARTCHAR 201E
ENCODING 8222
SWIDTH 440 0
DWIDTH 22 0
BBX 0 0 0 0
BITMAP
ENDCHAR
STARTCHAR 2020
ENCODING 8224
SWIDTH 500 0
DWIDTH 25 0
BBX 0 0 0 0
BITMAP
ENDCHAR
STARTCHAR 2021
ENCODING 8225
SWIDTH 500 0
DWIDTH 25 0
BBX 0 0 0 0
BITMAP
ENDCHAR
STARTCHAR 2022
ENCODING 8226
SWIDTH 500 0
DWIDTH 25 0
BBX 0 0 0 0
BITMAP
ENDCHAR
STARTCHAR 2026
ENCODING 8230
SWIDTH 1000 0
DWIDTH 50 0
BBX 0 0 0 0
BITMAP
ENDCHAR
STARTCHAR 2039
ENCODING 8249
SWIDTH 300 0
DWIDTH 15 0
BBX 0 0 0 0
BITMAP
ENDCHAR
STARTCHAR 203A
ENCODING 8250
SWIDTH 300 0
DWIDTH 15 0
BBX 0 0 0 0
BITMAP
ENDCHAR
STARTCHAR 2044
ENCODING 8260
SWIDTH 160 0
DWIDTH 8 0
BBX 0 0 0 0
BITMAP
ENDCHAR
STARTCHAR 20A3
ENCODING 8355
SWIDTH 500 0
DWIDTH 25 0
BBX 0 0 0 0
BITMAP
ENDCHAR
STARTCHAR 20A4
ENCODING 8356
SWIDTH 500 0
DWIDTH 25 0
BBX 0 0 0 0
BITMAP
ENDCHAR
STARTCHAR 20A7
ENCODING 8359
SWIDTH 1000 0
DWIDTH 50 0
BBX 0 0 0 0
BITMAP
ENDCHAR
STARTCHAR 20AC
ENCODING 8364
SWIDTH 500 0
DWIDTH 25 0
BBX 0 0 0 0
BITMAP
ENDCHAR
STARTCHAR 2116
ENCODING 8470
SWIDTH 1100 0
DWIDTH 55 0
BBX 0 0 0 0
BITMAP
ENDCHAR
STARTCHAR 2122
ENCODING 8482
SWIDTH 740 0
DWIDTH 37 0
BBX 0 0 0 0
BITMAP
ENDCHAR
STARTCHAR 2202
ENCODING 8706
SWIDTH 500 0
DWIDTH 25 0
BBX 0 0 0 0
BITMAP
ENDCHAR
STARTCHAR 2206
ENCODING 8710
SWIDTH 520 0
DWIDTH 26 0
BBX 0 0 0 0
BITMAP
ENDCHAR
STARTCHAR 220F
ENCODING 8719
SWIDTH 740 0
DWIDTH 37 0
BBX 0 0 0 0
BITMAP
ENDCHAR
STARTCHAR 2211
ENCODING 8721
SWIDTH 580 0
DWIDTH 29 0
BBX 0 0 0 0
BITMAP
ENDCHAR
STARTCHAR 2212
ENCODING 8722
SWIDTH 500 0
DWIDTH 25 0
BBX 0 0 0 0
BITMAP
ENDCHAR
STARTCHAR 2215
ENCODING 8725
SWIDTH 160 0
DWIDTH 8 0
BBX 0 0 0 0
BITMAP
ENDCHAR
STARTCHAR 2219
ENCODING 8729
SWIDTH 240 0
DWIDTH 12 0
BBX 0 0 0 0
BITMAP
ENDCHAR
STARTCHAR 221A
ENCODING 8730
SWIDTH 500 0
DWIDTH 25 0
BBX 0 0 0 0
BITMAP
ENDCHAR
STARTCHAR 221E
ENCODING 8734
SWIDTH 500 0
DWIDTH 25 0
BBX 0 0 0 0
BITMAP
ENDCHAR
STARTCHAR 222B
ENCODING 8747
SWIDTH 320 0
DWIDTH 16 0
BBX 0 0 0 0
BITMAP
ENDCHAR
STARTCHAR 2248
ENCODING 8776
SWIDTH 500 0
DWIDTH 25 0
BBX 0 0 0 0
BITMAP
ENDCHAR
STARTCHAR 2264
ENCODING 8804
SWIDTH 500 0
DWIDTH 25 0
BBX 0 0 0 0
BITMAP
ENDCHAR
STARTCHAR 2265
ENCODING 8805
SWIDTH 500 0
DWIDTH 25 0
BBX 0 0 0 0
BITMAP
ENDCHAR
STARTCHAR F001
ENCODING 61441
SWIDTH 520 0
DWIDTH 26 0
BBX 0 0 0 0
BITMAP
ENDCHAR
STARTCHAR F002
ENCODING 61442
SWIDTH 520 0
DWIDTH 26 0
BBX 0 0 0 0
BITMAP
ENDCHAR
STARTCHAR FB01
ENCODING 64257
SWIDTH 520 0
DWIDTH 26 0
BBX 0 0 0 0
BITMAP
ENDCHAR
STARTCHAR FB02
ENCODING 64258
SWIDTH 520 0
DWIDTH 26 0
BBX 0 0 0 0
BITMAP
ENDCHAR
ENDFONT
